<svg width="708" height="1208" viewBox="0 0 708 1208" fill="none" xmlns="http://www.w3.org/2000/svg">
<g filter="url(#filter0_d_194_463)">
<path d="M124 0H584V1200L354 1029.6L124 1200V0Z" fill="#5F6368"/>
</g>
<g filter="url(#filter1_d_194_463)">
<path d="M354 151L378.715 186.971L408.752 155.309L427.535 194.703L462.156 168.13L474.545 209.978L512.897 189.148L518.587 232.418L559.725 217.844L558.576 261.472L601.487 253.513L593.528 296.424L637.156 295.275L622.582 336.413L665.852 342.103L645.022 380.455L686.87 392.844L660.297 427.465L699.691 446.248L668.029 476.285L704 501L668.029 525.715L699.691 555.752L660.297 574.535L686.87 609.156L645.022 621.545L665.852 659.897L622.582 665.587L637.156 706.725L593.528 705.576L601.487 748.487L558.576 740.528L559.725 784.156L518.587 769.582L512.897 812.852L474.545 792.022L462.156 833.87L427.535 807.297L408.752 846.691L378.715 815.029L354 851L329.285 815.029L299.248 846.691L280.465 807.297L245.844 833.87L233.455 792.022L195.103 812.852L189.413 769.582L148.275 784.156L149.424 740.528L106.513 748.487L114.472 705.576L70.8441 706.725L85.4184 665.587L42.1477 659.897L62.978 621.545L21.1302 609.156L47.7035 574.535L8.30908 555.752L39.971 525.715L4 501L39.971 476.285L8.30908 446.248L47.7035 427.465L21.1302 392.844L62.978 380.455L42.1477 342.103L85.4184 336.413L70.8441 295.275L114.472 296.424L106.513 253.513L149.424 261.472L148.275 217.844L189.413 232.418L195.103 189.148L233.455 209.978L245.844 168.13L280.465 194.703L299.248 155.309L329.285 186.971L354 151Z" fill="white"/>
</g>
<defs>
<filter id="filter0_d_194_463" x="120" y="0" width="468" height="1208" filterUnits="userSpaceOnUse" color-interpolation-filters="sRGB">
<feFlood flood-opacity="0" result="BackgroundImageFix"/>
<feColorMatrix in="SourceAlpha" type="matrix" values="0 0 0 0 0 0 0 0 0 0 0 0 0 0 0 0 0 0 127 0" result="hardAlpha"/>
<feOffset dy="4"/>
<feGaussianBlur stdDeviation="2"/>
<feComposite in2="hardAlpha" operator="out"/>
<feColorMatrix type="matrix" values="0 0 0 0 0 0 0 0 0 0 0 0 0 0 0 0 0 0 0.25 0"/>
<feBlend mode="normal" in2="BackgroundImageFix" result="effect1_dropShadow_194_463"/>
<feBlend mode="normal" in="SourceGraphic" in2="effect1_dropShadow_194_463" result="shape"/>
</filter>
<filter id="filter1_d_194_463" x="0" y="151" width="708" height="708" filterUnits="userSpaceOnUse" color-interpolation-filters="sRGB">
<feFlood flood-opacity="0" result="BackgroundImageFix"/>
<feColorMatrix in="SourceAlpha" type="matrix" values="0 0 0 0 0 0 0 0 0 0 0 0 0 0 0 0 0 0 127 0" result="hardAlpha"/>
<feOffset dy="4"/>
<feGaussianBlur stdDeviation="2"/>
<feComposite in2="hardAlpha" operator="out"/>
<feColorMatrix type="matrix" values="0 0 0 0 0 0 0 0 0 0 0 0 0 0 0 0 0 0 0.25 0"/>
<feBlend mode="normal" in2="BackgroundImageFix" result="effect1_dropShadow_194_463"/>
<feBlend mode="normal" in="SourceGraphic" in2="effect1_dropShadow_194_463" result="shape"/>
</filter>
</defs>
</svg>
