<svg width="40" height="40" viewBox="0 0 40 40" fill="none" xmlns="http://www.w3.org/2000/svg">
<g clip-path="url(#clip0_542_560)">
<path d="M7.5498 28.4164L17.7998 8.88309H17.7665C18.3998 7.64975 19.8998 7.18309 21.1165 7.83309C21.5498 8.06642 21.9165 8.43309 22.1498 8.86642L23.9165 12.2164" stroke="#171717" stroke-width="2.5" stroke-linecap="round" stroke-linejoin="round"/>
<path d="M25.7833 10.7497C26.75 9.76633 28.3333 9.76633 29.3 10.733C29.6667 11.0997 29.9 11.5663 29.9833 12.083L32.4833 27.2663C32.65 28.2997 32.15 29.333 31.2167 29.833L21.1 34.6663C20.3333 35.083 19.4167 35.0997 18.6667 34.6663L8.63332 29.7997C7.71665 29.283 7.21665 28.2663 7.38332 27.233L10.65 7.16633C10.85 5.79967 12.1333 4.86633 13.4833 5.083C14.25 5.19967 14.9333 5.683 15.3 6.36633L17.3667 9.29967" stroke="#171717" stroke-width="2.5" stroke-linecap="round" stroke-linejoin="round"/>
<path d="M7.6167 28.633L25.8334 10.833" stroke="#171717" stroke-width="2.5" stroke-linecap="round" stroke-linejoin="round"/>
</g>
<defs>
<clipPath id="clip0_542_560">
<rect width="40" height="40" fill="white"/>
</clipPath>
</defs>
</svg>
