<svg width="1280" height="2135" viewBox="0 0 1280 2135" fill="none" xmlns="http://www.w3.org/2000/svg">
<line x1="57" y1="2.3331e-08" x2="56.9996" y2="2135" stroke="#979797" stroke-width="4"/>
<line x1="187" y1="2.3331e-08" x2="187" y2="2135" stroke="#979797" stroke-width="4"/>
<line x1="317" y1="2.3331e-08" x2="317" y2="2135" stroke="#979797" stroke-width="4"/>
<line x1="447" y1="2.3331e-08" x2="447" y2="2135" stroke="#979797" stroke-width="4"/>
<line x1="577" y1="2.3331e-08" x2="577" y2="2135" stroke="#979797" stroke-width="4"/>
<line x1="707" y1="2.3331e-08" x2="707" y2="2135" stroke="#979797" stroke-width="4"/>
<line x1="837" y1="2.3331e-08" x2="837" y2="2135" stroke="#979797" stroke-width="4"/>
<line x1="967" y1="2.3331e-08" x2="967" y2="2135" stroke="#979797" stroke-width="4"/>
<line x1="1097" y1="6.31083e-08" x2="1097" y2="2135" stroke="#979797" stroke-width="4"/>
<line x1="1227" y1="6.31083e-08" x2="1227" y2="2135" stroke="#979797" stroke-width="4"/>
<line y1="52" x2="1280" y2="52" stroke="#979797" stroke-width="6"/>
<line y1="182" x2="1280" y2="182" stroke="#979797" stroke-width="6"/>
<line y1="312" x2="1280" y2="312" stroke="#979797" stroke-width="6"/>
<line y1="442" x2="1280" y2="442" stroke="#979797" stroke-width="6"/>
<line y1="572" x2="1280" y2="572" stroke="#979797" stroke-width="6"/>
<line y1="702" x2="1280" y2="702" stroke="#979797" stroke-width="6"/>
<line y1="832" x2="1280" y2="832" stroke="#979797" stroke-width="6"/>
<line y1="962" x2="1280" y2="962" stroke="#979797" stroke-width="6"/>
<line y1="1092" x2="1280" y2="1092" stroke="#979797" stroke-width="6"/>
<line y1="1222" x2="1280" y2="1222" stroke="#979797" stroke-width="6"/>
<line y1="1352" x2="1280" y2="1352" stroke="#979797" stroke-width="6"/>
<line y1="1482" x2="1280" y2="1482" stroke="#979797" stroke-width="6"/>
<line y1="1612" x2="1280" y2="1612" stroke="#979797" stroke-width="6"/>
<line y1="1742" x2="1280" y2="1742" stroke="#979797" stroke-width="6"/>
<line y1="1872" x2="1280" y2="1872" stroke="#979797" stroke-width="6"/>
<line y1="2002" x2="1280" y2="2002" stroke="#979797" stroke-width="6"/>
</svg>
