<svg width="204" height="87" viewBox="0 0 204 87" fill="none" xmlns="http://www.w3.org/2000/svg">
<path d="M36.0785 27.3707L41.0517 27.8877L41.6671 21.9686L35.7305 22.3828L36.0785 27.3707ZM32.2991 63.7218L32.647 68.7097L36.8378 68.4173L37.2723 64.2389L32.2991 63.7218ZM23.271 64.3516L18.2988 63.8253L17.6711 69.7544L23.619 69.3395L23.271 64.3516ZM24.6607 51.2231L29.633 51.7494L30.2606 45.8203L24.3128 46.2352L24.6607 51.2231ZM14.9344 51.9016L14.5864 46.9137L10.3877 47.2066L9.96022 51.3938L14.9344 51.9016ZM13.5945 65.0266L13.9425 70.0145L18.1412 69.7216L18.5687 65.5344L13.5945 65.0266ZM4.56646 65.6565L-0.406034 65.1327L-1.03027 71.059L4.91441 70.6443L4.56646 65.6565ZM8.39577 29.3018L8.04781 24.3139L3.86274 24.6059L3.42328 28.7781L8.39577 29.3018ZM17.3739 28.6755L22.3458 29.2053L22.978 23.2724L17.026 23.6876L17.3739 28.6755ZM15.7383 44.0265L10.7664 43.4968L10.1343 49.4296L16.0862 49.0144L15.7383 44.0265ZM25.4646 43.348L25.8126 48.3359L29.9926 48.0443L30.4365 43.8778L25.4646 43.348ZM27.1003 27.997L26.7524 23.0091L22.5724 23.3007L22.1285 27.4672L27.1003 27.997ZM31.1053 26.8536L27.3259 63.2047L37.2723 64.2389L41.0517 27.8877L31.1053 26.8536ZM31.9511 58.7339L22.923 59.3637L23.619 69.3395L32.647 68.7097L31.9511 58.7339ZM28.2432 64.8779L29.633 51.7494L19.6885 50.6967L18.2988 63.8253L28.2432 64.8779ZM24.3128 46.2352L14.5864 46.9137L15.2823 56.8895L25.0087 56.2109L24.3128 46.2352ZM9.96022 51.3938L8.62037 64.5189L18.5687 65.5344L19.9085 52.4094L9.96022 51.3938ZM13.2466 60.0388L4.2185 60.6686L4.91441 70.6443L13.9425 70.0145L13.2466 60.0388ZM9.53895 66.1802L13.3683 29.8256L3.42328 28.7781L-0.406034 65.1327L9.53895 66.1802ZM8.74372 34.2897L17.7219 33.6634L17.026 23.6876L8.04781 24.3139L8.74372 34.2897ZM12.4021 28.1457L10.7664 43.4968L20.7101 44.5563L22.3458 29.2053L12.4021 28.1457ZM16.0862 49.0144L25.8126 48.3359L25.1167 38.3602L15.3903 39.0387L16.0862 49.0144ZM30.4365 43.8778L32.0722 28.5267L22.1285 27.4672L20.4928 42.8183L30.4365 43.8778ZM27.4483 32.9849L36.4264 32.3585L35.7305 22.3828L26.7524 23.0091L27.4483 32.9849ZM51.5841 55.4597L56.5825 55.3326L56.3551 46.3912L48.8576 51.2685L51.5841 55.4597ZM51.7279 61.1134L55.1808 64.7297L56.7826 63.2003L56.7263 60.9863L51.7279 61.1134ZM40.4948 61.7467L44.5023 58.7567L44.5023 58.7567L40.4948 61.7467ZM39.3963 56.0593L34.4244 55.5301L34.4216 55.5563L34.4191 55.5825L39.3963 56.0593ZM41.2129 38.9915L40.865 34.0036L36.6845 34.2953L36.241 38.4623L41.2129 38.9915ZM49.6923 38.4L54.6641 38.9304L55.2972 32.9968L49.3444 33.4121L49.6923 38.4ZM47.9952 54.3067L43.0234 53.7762L43.0205 53.803L43.018 53.8299L47.9952 54.3067ZM42.7163 26.0555L38.8883 22.839L38.8864 22.8413L42.7163 26.0555ZM50.3721 32.338L46.5991 29.0571L46.5703 29.0902L46.5421 29.1238L50.3721 32.338ZM49.9218 61.089C51.4332 60.9836 52.9426 60.5408 54.3106 59.6509L48.8576 51.2685C48.954 51.2058 49.0498 51.163 49.1301 51.1374C49.2078 51.1126 49.2455 51.1119 49.2259 51.1133L49.9218 61.089ZM46.5857 55.5868L46.7295 61.2405L56.7263 60.9863L56.5825 55.3326L46.5857 55.5868ZM48.275 57.4971C47.6295 58.1135 46.988 58.3866 46.1786 58.4431L46.8746 68.4189C50.0555 68.197 52.8815 66.9251 55.1808 64.7297L48.275 57.4971ZM46.1786 58.4431C45.0006 58.5253 44.3604 58.4269 44.0939 58.3525C43.8781 58.2922 44.1858 58.3326 44.5023 58.7567L36.4872 64.7366C39.1102 68.2522 43.5143 68.6533 46.8746 68.4189L46.1786 58.4431ZM44.5023 58.7567C44.4236 58.6513 44.3977 58.5898 44.3906 58.5713C44.3845 58.5554 44.3812 58.5432 44.3795 58.5185L34.4038 59.2144C34.5474 61.2728 35.2946 63.138 36.4872 64.7366L44.5023 58.7567ZM44.3795 58.5185C44.3189 57.6488 44.3291 56.9994 44.3735 56.5361L34.4191 55.5825C34.3088 56.7339 34.316 57.9559 34.4038 59.2144L44.3795 58.5185ZM44.3682 56.5885L46.1848 39.5207L36.241 38.4623L34.4244 55.5301L44.3682 56.5885ZM41.5609 43.9794L50.0403 43.3879L49.3444 33.4121L40.865 34.0036L41.5609 43.9794ZM44.7205 37.8695L43.0234 53.7762L52.967 54.8371L54.6641 38.9304L44.7205 37.8695ZM43.018 53.8299C42.9778 54.2494 42.9614 54.7144 42.9957 55.2068L52.9715 54.5109C52.9826 54.6706 52.9739 54.7676 52.9724 54.7834L43.018 53.8299ZM42.9957 55.2068C43.0907 56.5682 43.6252 58.4356 45.35 59.783C46.9687 61.0475 48.7764 61.1689 49.9218 61.089L49.2259 51.1133C49.3738 51.103 50.4177 51.0522 51.5062 51.9025C52.7009 52.8358 52.9391 54.0472 52.9715 54.5109L42.9957 55.2068ZM46.6312 30.4437C46.5808 29.7217 46.6337 29.3058 46.6767 29.1163C46.7153 28.946 46.7208 29.0619 46.5463 29.2698L38.8864 22.8413C36.8152 25.3092 36.4677 28.4484 36.6555 31.1396L46.6312 30.4437ZM46.5444 29.272C46.4162 29.4247 46.3157 29.4535 46.3941 29.4208C46.4982 29.3774 46.8004 29.2791 47.3991 29.2374L46.7032 19.2616C43.954 19.4534 40.9772 20.3529 38.8883 22.839L46.5444 29.272ZM47.3991 29.2374C48.1714 29.1835 47.8318 29.3919 47.2219 28.9257C46.9055 28.684 46.6951 28.388 46.582 28.1423C46.4822 27.9254 46.4997 27.8407 46.5106 27.9962L56.4864 27.3003C56.3346 25.1254 55.5144 22.6772 53.2939 20.9803C51.2016 19.3813 48.7241 19.1206 46.7032 19.2616L47.3991 29.2374ZM46.5106 27.9962C46.5584 28.6815 46.5033 29.0635 46.4647 29.2242C46.4318 29.3615 46.4346 29.2463 46.5991 29.0571L54.1451 35.6189C56.2818 33.1618 56.6764 30.0239 56.4864 27.3003L46.5106 27.9962ZM46.5421 29.1238C46.7145 28.9184 46.8515 28.8787 46.7635 28.9143C46.6504 28.9601 46.3253 29.0617 45.6858 29.1063L46.3818 39.082C49.0758 38.8941 52.1051 38.0509 54.2021 35.5522L46.5421 29.1238ZM45.6858 29.1063C44.9146 29.1601 45.2547 28.9529 45.8718 29.4171C46.196 29.661 46.4191 29.9656 46.5429 30.2309C46.6531 30.4671 46.6404 30.5748 46.6312 30.4437L36.6555 31.1396C36.8065 33.3049 37.6362 35.7356 39.8606 37.4087C41.9412 38.9738 44.3931 39.2208 46.3818 39.082L45.6858 29.1063ZM63.3468 48.4241L63.6948 53.4119L67.7597 53.1284L68.3023 49.0899L63.3468 48.4241ZM56.713 48.8868L51.7237 48.5589L51.3482 54.2732L57.0609 53.8747L56.713 48.8868ZM58.4635 22.2504L58.1156 17.2626L53.7606 17.5664L53.4743 21.9225L58.4635 22.2504ZM66.9429 21.6589L71.8984 22.3247L72.7154 16.2441L66.595 16.671L66.9429 21.6589ZM55.4532 54.5382L59.2832 57.7524L59.3104 57.72L59.337 57.6872L55.4532 54.5382ZM63.109 60.8207L59.336 57.5397L59.3072 57.5728L59.279 57.6064L63.109 60.8207ZM62.9989 43.4362L56.365 43.899L57.0609 53.8747L63.6948 53.4119L62.9989 43.4362ZM61.7022 49.2147L63.4528 22.5783L53.4743 21.9225L51.7237 48.5589L61.7022 49.2147ZM58.8115 27.2383L67.2909 26.6468L66.595 16.671L58.1156 17.2626L58.8115 27.2383ZM61.9875 20.9931L58.3914 47.7582L68.3023 49.0899L71.8984 22.3247L61.9875 20.9931ZM59.3681 58.9264C59.3177 58.2044 59.3706 57.7885 59.4135 57.599C59.4521 57.4286 59.4576 57.5446 59.2832 57.7524L51.6232 51.324C49.5521 53.7919 49.2046 56.9311 49.3923 59.6223L59.3681 58.9264ZM59.337 57.6872C59.1747 57.8874 59.0371 57.934 59.106 57.9052C59.2028 57.8649 59.5105 57.7637 60.136 57.72L59.4401 47.7443C56.7034 47.9352 53.6536 48.8186 51.5694 51.3893L59.337 57.6872ZM60.136 57.72C60.9083 57.6662 60.5686 57.8745 59.9587 57.4084C59.6424 57.1667 59.4319 56.8706 59.3189 56.625C59.219 56.4081 59.2366 56.3234 59.2475 56.4789L69.2232 55.7829C69.0715 53.6081 68.2512 51.1599 66.0308 49.463C63.9385 47.864 61.461 47.6033 59.4401 47.7443L60.136 57.72ZM59.2475 56.4789C59.2953 57.1642 59.2402 57.5461 59.2016 57.7069C59.1686 57.8442 59.1714 57.729 59.336 57.5397L66.882 64.1016C69.0186 61.6445 69.4132 58.5066 69.2232 55.7829L59.2475 56.4789ZM59.279 57.6064C59.4514 57.4011 59.5884 57.3614 59.5004 57.397C59.3872 57.4428 59.0622 57.5443 58.4227 57.589L59.1186 67.5647C61.8126 67.3768 64.842 66.5336 66.9389 64.0349L59.279 57.6064ZM58.4227 57.589C57.6514 57.6428 57.9916 57.4356 58.6087 57.8998C58.9328 58.1436 59.1559 58.4482 59.2797 58.7136C59.3899 58.9498 59.3772 59.0574 59.3681 58.9264L49.3923 59.6223C49.5434 61.7876 50.3731 64.2182 52.5975 65.8914C54.6781 67.4564 57.13 67.7034 59.1186 67.5647L58.4227 57.589ZM94.4328 23.2998L99.406 23.8169L100.021 17.8978L94.0848 18.3119L94.4328 23.2998ZM90.6533 59.651L91.0013 64.6389L95.1921 64.3465L95.6265 60.168L90.6533 59.651ZM81.6253 60.2808L76.6528 59.757L76.0285 65.6834L81.9732 65.2687L81.6253 60.2808ZM85.4546 23.9261L85.1066 18.9383L80.9216 19.2302L80.4821 23.4024L85.4546 23.9261ZM89.4596 22.7828L85.6801 59.1339L95.6265 60.168L99.406 23.8169L89.4596 22.7828ZM90.3054 54.6631L81.2773 55.2929L81.9732 65.2687L91.0013 64.6389L90.3054 54.6631ZM86.5978 60.8045L90.4271 24.4499L80.4821 23.4024L76.6528 59.757L86.5978 60.8045ZM85.8025 28.914L94.7807 28.2877L94.0848 18.3119L85.1066 18.9383L85.8025 28.914ZM102.235 19.9988L98.4072 16.7823L98.4053 16.7846L102.235 19.9988ZM98.5255 37.9505L93.5552 37.4067L92.9044 43.3548L98.8735 42.9384L98.5255 37.9505ZM98.9234 34.314L98.5755 29.3261L94.4075 29.6169L93.9531 33.7702L98.9234 34.314ZM102.959 32.5288L105.936 36.546L105.947 36.5381L105.957 36.5301L102.959 32.5288ZM105.553 28.0375L110.522 28.5874L111.181 22.6327L105.205 23.0496L105.553 28.0375ZM106.15 24.387C106.1 23.665 106.153 23.2491 106.196 23.0596C106.234 22.8893 106.24 23.0052 106.065 23.2131L98.4053 16.7846C96.3341 19.2525 95.9866 22.3917 96.1744 25.0829L106.15 24.387ZM106.063 23.2153C105.935 23.368 105.835 23.3968 105.913 23.3641C106.017 23.3207 106.319 23.2224 106.918 23.1807L106.222 13.2049C103.473 13.3967 100.496 14.2962 98.4072 16.7823L106.063 23.2153ZM106.918 23.1807C107.283 23.1552 107.406 23.1933 107.36 23.1818C107.291 23.1645 107.065 23.0891 106.813 22.8743C106.558 22.6574 106.433 22.4329 106.391 22.3314C106.358 22.2547 106.408 22.3339 106.431 22.6633L116.407 21.9674C116.248 19.6904 115.476 17.114 113.291 15.2559C111.127 13.4164 108.476 13.0476 106.222 13.2049L106.918 23.1807ZM106.431 22.6633C106.723 26.8459 105.88 29.1256 104.849 30.3753C103.862 31.5728 101.979 32.6975 98.1776 32.9626L98.8735 42.9384C104.35 42.5564 109.254 40.7516 112.564 36.7374C115.832 32.7753 116.797 27.5611 116.407 21.9674L106.431 22.6633ZM103.496 38.4944L103.894 34.8579L93.9531 33.7702L93.5552 37.4067L103.496 38.4944ZM99.2714 39.3019C101.807 39.125 104.065 37.9329 105.936 36.546L99.982 28.5117C99.4582 28.8998 99.0677 29.1174 98.8074 29.2325C98.5492 29.3467 98.482 29.3327 98.5755 29.3261L99.2714 39.3019ZM105.957 36.5301C108.56 34.5801 110.162 31.847 110.522 28.5874L100.583 27.4875C100.534 27.9321 100.407 28.1933 99.9606 28.5276L105.957 36.5301ZM105.205 23.0496C104.433 23.1034 104.774 22.8963 105.391 23.3604C105.715 23.6043 105.938 23.9089 106.062 24.1742C106.172 24.4104 106.159 24.5181 106.15 24.387L96.1744 25.0829C96.3254 27.2482 97.1551 29.6789 99.3795 31.352C101.46 32.9171 103.912 33.1641 105.901 33.0253L105.205 23.0496ZM156.496 48.141L161.494 48.0139L161.267 39.0725L153.769 43.9498L156.496 48.141ZM156.639 53.7947L160.092 57.411L161.694 55.8816L161.638 53.6676L156.639 53.7947ZM144.308 48.7406L149.281 49.2524L149.282 49.2448L149.283 49.2371L144.308 48.7406ZM144.927 42.5325L149.903 43.0289L149.903 43.0191L149.904 43.0092L144.927 42.5325ZM138.194 40.847L133.963 38.1824L133.341 39.1701L133.22 40.3311L138.194 40.847ZM136.575 56.4474L136.923 61.4353L141.115 61.1429L141.549 56.9633L136.575 56.4474ZM128.096 57.039L123.124 56.5137L122.497 62.4417L128.444 62.0268L128.096 57.039ZM129.515 43.6077L134.487 44.1329L134.49 44.1087L134.492 44.0844L129.515 43.6077ZM123.102 41.4988L119.229 38.3373L118.286 39.4918L118.13 40.9737L123.102 41.4988ZM121.412 57.5052L121.76 62.4931L125.944 62.2012L126.385 58.0303L121.412 57.5052ZM112.933 58.0967L107.96 57.5714L107.334 63.4995L113.281 63.0846L112.933 58.0967ZM115.499 33.8093L115.151 28.8214L110.967 29.1133L110.526 33.2839L115.499 33.8093ZM123.38 33.2595L128.349 33.8167L129.017 27.8541L123.032 28.2716L123.38 33.2595ZM123.04 36.2905L118.071 35.7333L127.133 39.1616L123.04 36.2905ZM138.045 35.8452L133.234 37.2076L136.388 48.345L142.335 38.4138L138.045 35.8452ZM152.417 32.7876L156.42 29.7912L156.397 29.7611L156.374 29.7313L152.417 32.7876ZM153.635 39.469L158.612 39.9512L158.612 39.9458L153.635 39.469ZM152.907 46.988L147.93 46.5058L147.929 46.5112L152.907 46.988ZM154.833 53.7703C156.345 53.6649 157.854 53.2221 159.222 52.3322L153.769 43.9498C153.865 43.8871 153.961 43.8443 154.042 43.8187C154.119 43.7939 154.157 43.7932 154.137 43.7946L154.833 53.7703ZM151.497 48.2681L151.641 53.9218L161.638 53.6676L161.494 48.0139L151.497 48.2681ZM153.186 50.1784C152.541 50.7948 151.899 51.068 151.09 51.1244L151.786 61.1002C154.967 60.8783 157.793 59.6064 160.092 57.411L153.186 50.1784ZM151.09 51.1244C149.404 51.242 149.043 50.8938 149.189 50.9996C149.225 51.0262 149.268 51.0649 149.307 51.1117C149.325 51.1336 149.339 51.153 149.348 51.1681C149.358 51.1832 149.362 51.1916 149.362 51.191C149.36 51.1886 149.278 51.0137 149.246 50.5514L139.27 51.2473C139.474 54.1653 140.596 57.1188 143.314 59.0918C145.853 60.9352 148.949 61.298 151.786 61.1002L151.09 51.1244ZM149.246 50.5514C149.222 50.2155 149.226 49.7869 149.281 49.2524L139.334 48.2288C139.23 49.2425 139.201 50.253 139.27 51.2473L149.246 50.5514ZM149.283 49.2371L149.903 43.0289L139.952 42.036L139.332 48.2442L149.283 49.2371ZM149.904 43.0092C149.988 42.1334 150.001 41.2555 149.939 40.3784L139.964 41.0743C139.986 41.3944 139.982 41.7206 139.95 42.0557L149.904 43.0092ZM149.939 40.3784C149.821 38.677 149.178 36.5577 147.256 35.0462C145.433 33.6133 143.328 33.4217 141.793 33.5287L142.489 43.5045C142.717 43.4886 141.961 43.6039 141.075 42.9075C140.09 42.1326 139.971 41.1796 139.964 41.0743L149.939 40.3784ZM141.793 33.5287C138.517 33.7573 135.738 35.363 133.963 38.1824L142.424 43.5116C142.466 43.4457 142.486 43.428 142.477 43.4376C142.472 43.442 142.463 43.4508 142.448 43.462C142.434 43.4732 142.417 43.4847 142.399 43.4954C142.381 43.506 142.365 43.514 142.352 43.5195C142.339 43.525 142.333 43.5268 142.335 43.5262C142.338 43.5252 142.385 43.5118 142.489 43.5045L141.793 33.5287ZM133.22 40.3311L131.602 55.9315L141.549 56.9633L143.167 41.3629L133.22 40.3311ZM136.227 51.4595L127.748 52.0511L128.444 62.0268L136.923 61.4353L136.227 51.4595ZM133.068 57.5642L134.487 44.1329L124.542 43.0824L123.124 56.5137L133.068 57.5642ZM134.492 44.0844C134.576 43.2086 134.588 42.3307 134.527 41.4536L124.551 42.1495C124.573 42.4696 124.57 42.7957 124.537 43.1309L134.492 44.0844ZM134.527 41.4536C134.406 39.7246 133.742 37.5962 131.794 36.0938C129.965 34.683 127.862 34.5006 126.331 34.6074L127.027 44.5832C127.291 44.5647 126.562 44.6874 125.687 44.0121C124.692 43.2451 124.56 42.2825 124.551 42.1495L134.527 41.4536ZM126.331 34.6074C123.444 34.8088 121.004 36.1623 119.229 38.3373L126.976 44.6603C127.032 44.5918 127.068 44.5596 127.079 44.5499C127.09 44.541 127.084 44.5478 127.061 44.5597C127.039 44.5718 127.016 44.5805 126.999 44.5851C126.983 44.5895 126.99 44.5857 127.027 44.5832L126.331 34.6074ZM118.13 40.9737L116.44 56.9802L126.385 58.0303L128.075 42.0238L118.13 40.9737ZM121.064 52.5173L112.585 53.1089L113.281 63.0846L121.76 62.4931L121.064 52.5173ZM117.905 58.6221L120.471 34.3346L110.526 33.2839L107.96 57.5714L117.905 58.6221ZM115.847 38.7972L123.728 38.2474L123.032 28.2716L115.151 28.8214L115.847 38.7972ZM118.411 32.7023L118.071 35.7333L128.009 36.8477L128.349 33.8167L118.411 32.7023ZM127.133 39.1616C128.127 37.7451 129.217 37.1627 130.712 37.0585L130.016 27.0827C125.392 27.4053 121.6 29.6361 118.946 33.4194L127.133 39.1616ZM130.712 37.0585C132.414 36.9397 133.141 37.187 133.321 37.2755C133.375 37.3021 133.325 37.2857 133.257 37.2036C133.192 37.1243 133.203 37.0952 133.234 37.2076L142.856 34.4828C142.082 31.7512 140.322 29.5736 137.731 28.3006C135.351 27.1309 132.637 26.8999 130.016 27.0827L130.712 37.0585ZM142.335 38.4138C143.339 36.7363 144.471 36.0986 146.074 35.9868L145.379 26.011C140.331 26.3631 136.342 28.9563 133.755 33.2766L142.335 38.4138ZM146.074 35.9868C147.432 35.8921 148.23 35.9946 148.627 36.1007C148.983 36.1958 148.747 36.2153 148.46 35.8439L156.374 29.7313C153.623 26.1687 149.018 25.7571 145.379 26.011L146.074 35.9868ZM148.415 35.784C148.573 35.9963 148.644 36.1836 148.664 36.4577L158.639 35.7618C158.487 33.5753 157.735 31.5477 156.42 29.7912L148.415 35.784ZM148.664 36.4577C148.734 37.4699 148.723 38.3084 148.658 38.9923L158.612 39.9458C158.74 38.6113 158.74 37.2103 158.639 35.7618L148.664 36.4577ZM148.658 38.9868L147.93 46.5058L157.883 47.4702L158.612 39.9512L148.658 38.9868ZM147.929 46.5112C147.889 46.9307 147.873 47.3958 147.907 47.8881L157.883 47.1922C157.894 47.3519 157.885 47.4489 157.884 47.4647L147.929 46.5112ZM147.907 47.8881C148.002 49.2495 148.537 51.1169 150.261 52.4643C151.88 53.7288 153.688 53.8502 154.833 53.7703L154.137 43.7946C154.285 43.7843 155.329 43.7335 156.418 44.5838C157.612 45.5171 157.851 46.7285 157.883 47.1922L147.907 47.8881ZM159.929 47.2499L163.759 50.4642L163.786 50.4318L163.812 50.3989L159.929 47.2499ZM167.584 53.5324L163.811 50.2515L163.783 50.2846L163.754 50.3182L167.584 53.5324ZM163.843 51.6381C163.793 50.9161 163.846 50.5002 163.889 50.3107C163.928 50.1404 163.933 50.2563 163.759 50.4642L156.099 44.0357C154.027 46.5036 153.68 49.6428 153.868 52.334L163.843 51.6381ZM163.812 50.3989C163.65 50.5991 163.512 50.6457 163.581 50.617C163.678 50.5766 163.986 50.4754 164.611 50.4318L163.915 40.456C161.179 40.6469 158.129 41.5303 156.045 44.101L163.812 50.3989ZM164.611 50.4318C165.384 50.3779 165.044 50.5863 164.434 50.1201C164.118 49.8784 163.907 49.5824 163.794 49.3367C163.694 49.1198 163.712 49.0351 163.723 49.1906L173.699 48.4947C173.547 46.3198 172.727 43.8716 170.506 42.1747C168.414 40.5757 165.936 40.315 163.915 40.456L164.611 50.4318ZM163.723 49.1906C163.771 49.8759 163.716 50.2579 163.677 50.4186C163.644 50.5559 163.647 50.4407 163.811 50.2515L171.357 56.8133C173.494 54.3562 173.889 51.2183 173.699 48.4947L163.723 49.1906ZM163.754 50.3182C163.927 50.1128 164.064 50.0731 163.976 50.1087C163.863 50.1545 163.538 50.2561 162.898 50.3007L163.594 60.2764C166.288 60.0885 169.317 59.2453 171.414 56.7466L163.754 50.3182ZM162.898 50.3007C162.127 50.3545 162.467 50.1474 163.084 50.6115C163.408 50.8554 163.631 51.16 163.755 51.4253C163.865 51.6615 163.853 51.7692 163.843 51.6381L153.868 52.334C154.019 54.4993 154.848 56.93 157.073 58.6031C159.153 60.1682 161.605 60.4152 163.594 60.2764L162.898 50.3007ZM174.103 46.2611L177.933 49.4753L177.96 49.4429L177.987 49.4101L174.103 46.2611ZM181.759 52.5436L177.986 49.2626L177.957 49.2957L177.929 49.3293L181.759 52.5436ZM178.018 50.6493C177.968 49.9273 178.021 49.5114 178.063 49.3219C178.102 49.1515 178.108 49.2675 177.933 49.4753L170.273 43.0469C168.202 45.5148 167.855 48.654 168.042 51.3452L178.018 50.6493ZM177.987 49.4101C177.825 49.6103 177.687 49.6569 177.756 49.6281C177.853 49.5878 178.16 49.4866 178.786 49.4429L178.09 39.4672C175.353 39.6581 172.304 40.5415 170.219 43.1122L177.987 49.4101ZM178.786 49.4429C179.558 49.3891 179.219 49.5974 178.609 49.1313C178.292 48.8896 178.082 48.5935 177.969 48.3479C177.869 48.131 177.887 48.0463 177.897 48.2018L187.873 47.5059C187.721 45.331 186.901 42.8828 184.681 41.1859C182.588 39.5869 180.111 39.3262 178.09 39.4672L178.786 49.4429ZM177.897 48.2018C177.945 48.8871 177.89 49.269 177.852 49.4298C177.819 49.5671 177.821 49.4519 177.986 49.2626L185.532 55.8245C187.669 53.3674 188.063 50.2295 187.873 47.5059L177.897 48.2018ZM177.929 49.3293C178.101 49.124 178.238 49.0843 178.15 49.1199C178.037 49.1657 177.712 49.2672 177.073 49.3119L177.769 59.2876C180.463 59.0997 183.492 58.2565 185.589 55.7578L177.929 49.3293ZM177.073 49.3119C176.301 49.3657 176.641 49.1585 177.259 49.6227C177.583 49.8665 177.806 50.1711 177.93 50.4365C178.04 50.6727 178.027 50.7803 178.018 50.6493L168.042 51.3452C168.193 53.5105 169.023 55.9411 171.247 57.6143C173.328 59.1793 175.78 59.4263 177.769 59.2876L177.073 49.3119ZM188.278 45.2723L192.108 48.4865L192.135 48.4541L192.161 48.4212L188.278 45.2723ZM195.933 51.5547L192.16 48.2738L192.132 48.3069L192.103 48.3405L195.933 51.5547ZM192.193 49.6605C192.142 48.9384 192.195 48.5226 192.238 48.3331C192.277 48.1627 192.282 48.2787 192.108 48.4865L184.448 42.0581C182.377 44.526 182.029 47.6652 182.217 50.3564L192.193 49.6605ZM192.161 48.4212C191.999 48.6215 191.862 48.668 191.93 48.6393C192.027 48.599 192.335 48.4978 192.96 48.4541L192.265 38.4784C189.528 38.6693 186.478 39.5527 184.394 42.1233L192.161 48.4212ZM192.96 48.4541C193.733 48.4002 193.393 48.6086 192.783 48.1425C192.467 47.9007 192.256 47.6047 192.143 47.359C192.043 47.1421 192.061 47.0575 192.072 47.2129L202.048 46.517C201.896 44.3422 201.076 41.894 198.855 40.1971C196.763 38.598 194.285 38.3374 192.265 38.4784L192.96 48.4541ZM192.072 47.2129C192.12 47.8983 192.065 48.2802 192.026 48.4409C191.993 48.5783 191.996 48.463 192.16 48.2738L199.706 54.8357C201.843 52.3785 202.238 49.2406 202.048 46.517L192.072 47.2129ZM192.103 48.3405C192.276 48.1351 192.413 48.0955 192.325 48.1311C192.212 48.1769 191.887 48.2784 191.247 48.323L191.943 58.2988C194.637 58.1108 197.666 57.2676 199.763 54.769L192.103 48.3405ZM191.247 48.323C190.476 48.3768 190.816 48.1697 191.433 48.6339C191.757 48.8777 191.98 49.1823 192.104 49.4477C192.214 49.6839 192.202 49.7915 192.193 49.6605L182.217 50.3564C182.368 52.5217 183.198 54.9523 185.422 56.6255C187.503 58.1905 189.954 58.4375 191.943 58.2988L191.247 48.323Z" fill="white"/>
<path d="M36.0785 27.3707L32.2991 63.7218L23.271 64.3516L24.6607 51.2231L14.9344 51.9016L13.5945 65.0266L4.56646 65.6565L8.39577 29.3018L17.3739 28.6755L15.7383 44.0265L25.4646 43.348L27.1003 27.997L36.0785 27.3707ZM49.5739 56.1011C50.3387 56.0478 51.0088 55.834 51.5841 55.4597L51.7279 61.1134C50.2555 62.5193 48.5217 63.2918 46.5266 63.431C43.5006 63.6421 41.49 63.0806 40.4948 61.7467C39.8313 60.8574 39.4636 59.8973 39.3916 58.8665C39.3174 57.8024 39.319 56.8667 39.3963 56.0593L41.2129 38.9915L49.6923 38.4L47.9952 54.3067C47.9758 54.5085 47.972 54.6925 47.9836 54.8588C48.0462 55.7566 48.5763 56.1707 49.5739 56.1011ZM41.6433 30.7917C41.4949 28.6635 41.8525 27.0848 42.7163 26.0555C43.6111 24.9907 45.056 24.3887 47.0512 24.2495C49.8444 24.0546 51.3268 25.1875 51.4985 27.6482C51.6446 29.7431 51.2692 31.3064 50.3721 32.338C49.5083 33.3673 48.0622 33.9526 46.0338 34.0942C43.2738 34.2867 41.8104 33.1859 41.6433 30.7917ZM63.3468 48.4241L56.713 48.8868L58.4635 22.2504L66.9429 21.6589L63.3468 48.4241ZM54.3802 59.2744C54.2317 57.1462 54.5894 55.5675 55.4532 54.5382C56.3147 53.4757 57.7596 52.8737 59.788 52.7322C62.5812 52.5373 64.0637 53.6702 64.2353 56.1309C64.3815 58.2258 64.006 59.7891 63.109 60.8207C62.2452 61.8499 60.7991 62.4353 58.7707 62.5768C56.0107 62.7694 54.5472 61.6685 54.3802 59.2744ZM94.4328 23.2998L90.6533 59.651L81.6253 60.2808L85.4546 23.9261L94.4328 23.2998ZM101.162 24.735C101.014 22.6068 101.371 21.0281 102.235 19.9988C103.13 18.934 104.575 18.332 106.57 18.1928C109.596 17.9817 111.212 19.3559 111.419 22.3154C112.101 32.0916 107.803 37.3033 98.5255 37.9505L98.9234 34.314C100.121 34.2305 101.466 33.6354 102.959 32.5288C104.483 31.3867 105.348 29.8895 105.553 28.0375C102.793 28.23 101.329 27.1292 101.162 24.735ZM154.485 48.7825C155.25 48.7291 155.92 48.5153 156.496 48.141L156.639 53.7947C155.167 55.2006 153.433 55.9731 151.438 56.1123C146.916 56.4278 144.522 54.6901 144.258 50.8993C144.211 50.2343 144.228 49.5147 144.308 48.7406L144.927 42.5325C144.985 41.927 144.993 41.3249 144.952 40.7264C144.84 39.1303 143.903 38.3937 142.141 38.5166C140.412 38.6373 139.096 39.414 138.194 40.847L136.575 56.4474L128.096 57.039L129.515 43.6077C129.573 43.0022 129.581 42.4001 129.539 41.8016C129.428 40.2055 128.474 39.47 126.679 39.5953C125.249 39.695 124.057 40.3295 123.102 41.4988L121.412 57.5052L112.933 58.0967L115.499 33.8093L123.38 33.2595L123.04 36.2905C124.863 33.6906 127.305 32.284 130.364 32.0706C134.687 31.769 137.247 33.0272 138.045 35.8452C139.841 32.8463 142.401 31.2309 145.727 30.9989C149.085 30.7646 151.315 31.3608 152.417 32.7876C153.154 33.772 153.566 34.8794 153.651 36.1098C153.737 37.3401 153.732 38.4599 153.635 39.469L152.907 46.988C152.887 47.1898 152.883 47.3739 152.895 47.5401C152.958 48.4379 153.488 48.852 154.485 48.7825ZM158.856 51.9861C158.707 49.8579 159.065 48.2792 159.929 47.2499C160.79 46.1874 162.235 45.5854 164.263 45.4439C167.057 45.249 168.539 46.3819 168.711 48.8426C168.857 50.9375 168.481 52.5008 167.584 53.5324C166.721 54.5617 165.274 55.1471 163.246 55.2886C160.486 55.4811 159.023 54.3803 158.856 51.9861ZM173.03 50.9973C172.882 48.8691 173.239 47.2904 174.103 46.2611C174.965 45.1986 176.41 44.5966 178.438 44.4551C181.231 44.2602 182.714 45.3931 182.885 47.8538C183.031 49.9487 182.656 51.512 181.759 52.5436C180.895 53.5728 179.449 54.1582 177.421 54.2997C174.661 54.4923 173.197 53.3914 173.03 50.9973ZM187.205 50.0084C187.056 47.8803 187.414 46.3016 188.278 45.2723C189.139 44.2098 190.584 43.6077 192.612 43.4662C195.406 43.2714 196.888 44.4043 197.06 46.865C197.206 48.9599 196.83 50.5231 195.933 51.5547C195.07 52.584 193.624 53.1694 191.595 53.3109C188.835 53.5034 187.372 52.4026 187.205 50.0084Z" fill="#F36DAF"/>
</svg>
