<svg width="651" height="162" viewBox="0 0 651 162" fill="none" xmlns="http://www.w3.org/2000/svg">
<mask id="path-1-outside-1_353_410" maskUnits="userSpaceOnUse" x="-7.14551" y="11.4141" width="665.707" height="150.676" fill="black">
<rect fill="white" x="-7.14551" y="11.4141" width="665.707" height="150.676"/>
<path d="M21.3941 110.086C21.6502 113.757 24.4118 115.409 29.679 115.042C34.9994 114.671 37.5446 112.836 37.3144 109.537C37.192 107.781 36.1873 106.408 34.3004 105.417C32.4135 104.426 30.1406 103.649 27.4816 103.086C24.8759 102.519 22.2361 101.848 19.5623 101.072C16.938 100.239 14.649 98.8484 12.6953 96.8997C10.7379 94.8977 9.64971 92.3272 9.43073 89.1882C8.49913 75.834 16.6258 68.5574 33.8107 67.3586C40.0888 66.9206 44.9074 67.7874 48.2667 69.9589C51.6754 72.0735 53.5264 75.2323 53.8196 79.4354C53.9273 80.9783 53.8184 82.4829 53.493 83.9491C53.217 85.3584 52.8867 86.3705 52.5019 86.9854L51.9302 87.9877L37.8046 88.9731C38.8897 87.6677 39.3673 86.084 39.2374 84.2218C38.9961 80.7636 36.6143 79.1922 32.092 79.5077C26.3992 79.9048 23.6789 81.9123 23.9313 85.5302C24.0575 87.3391 25.0622 88.7125 26.9454 89.6504C28.8285 90.5883 31.0693 91.2874 33.6676 91.7477C36.3154 92.1511 38.9744 92.7141 41.6445 93.4367C44.3146 94.1593 46.6283 95.5216 48.5857 97.5235C50.5394 99.4723 51.6332 102.123 51.867 105.474C52.3384 112.231 50.6674 117.4 46.854 120.981C43.0369 124.508 36.9252 126.565 28.519 127.152C20.1127 127.738 14.2628 126.649 10.9691 123.885C8.52542 121.81 7.16627 118.804 6.89161 114.867C6.78769 113.377 6.8341 111.744 7.03084 109.966L7.18118 108.672L21.5463 107.67L21.4535 108.639C21.3842 109.178 21.3644 109.661 21.3941 110.086ZM96.8902 108.91C96.9867 110.293 97.7266 110.936 99.1099 110.84C100.546 110.74 101.725 110.39 102.646 109.791L102.876 118.837C100.467 121.09 97.6659 122.328 94.4737 122.551C88.4616 122.97 85.0281 120.884 84.1732 116.292C81.3038 121.144 77.1558 123.759 71.7289 124.137C66.3553 124.512 62.7851 123.532 61.0183 121.196C59.8465 119.727 59.192 118.008 59.0547 116.04C58.9174 114.071 58.9508 112.251 59.1549 110.58L61.8704 85.129L75.4374 84.1825L73.1674 105.673C73.0746 106.641 73.0616 107.605 73.1284 108.562C73.3066 111.116 74.8322 112.293 77.7052 112.092C80.0994 111.925 81.9572 110.967 83.2786 109.218L86.0516 83.4421L99.6186 82.4956L96.9032 107.946C96.8723 108.269 96.8679 108.59 96.8902 108.91ZM132.369 94.1648C132.209 91.877 131.012 90.8111 128.778 90.9669C126.596 91.1191 124.845 92.07 123.523 93.8195L120.83 119.589L107.263 120.536L111.369 81.6759L123.978 80.7963L123.429 85.5661C126.297 81.4632 130.125 79.2448 134.913 78.9107C139.702 78.5767 142.896 79.53 144.496 81.7708C145.504 83.1974 146.075 84.8684 146.209 86.7837C146.342 88.6991 146.334 90.4907 146.183 92.1586L144.885 104.599C144.854 104.922 144.848 105.216 144.867 105.482C144.967 106.919 145.815 107.582 147.411 107.47C148.635 107.385 149.707 107.043 150.628 106.444L150.858 115.49C148.502 117.739 145.728 118.975 142.536 119.198C135.3 119.703 131.47 116.922 131.047 110.857C130.973 109.793 131 108.642 131.127 107.403L132.302 96.6555C132.395 95.6867 132.417 94.8564 132.369 94.1648ZM192.649 102.229C192.745 103.613 193.485 104.256 194.868 104.16C196.305 104.059 197.483 103.71 198.404 103.111L198.634 112.157C196.225 114.41 193.424 115.648 190.232 115.871C184.38 116.279 180.986 114.377 180.05 110.165C177.687 114.607 173.925 117.008 168.764 117.368C160.039 117.977 155.415 114.53 154.891 107.029C154.802 105.752 154.837 104.333 154.995 102.771L156.02 93.3168C156.537 88.4691 158.213 84.5295 161.049 81.4981C163.935 78.4099 167.825 76.695 172.72 76.3535C177.668 76.0083 181.099 76.9184 183.015 79.0837L183.247 76.6617L195.377 75.8154L192.662 101.266C192.631 101.589 192.626 101.91 192.649 102.229ZM168.759 100.047C168.686 100.533 168.679 101.202 168.738 102.053C168.798 102.904 169.256 103.728 170.114 104.523C170.967 105.266 172.325 105.572 174.188 105.442C176.103 105.308 177.7 104.448 178.98 102.862L180.439 89.2877C179.76 87.9984 178.331 87.4299 176.149 87.5821C172.053 87.8679 169.796 90.0034 169.379 93.9888L168.759 100.047ZM244.792 100.677C246.016 100.591 247.088 100.249 248.008 99.6505L248.239 108.696C245.883 110.946 243.109 112.182 239.916 112.405C232.681 112.909 228.851 110.129 228.428 104.064C228.354 103 228.381 101.848 228.508 100.61L229.579 90.6713C229.672 89.7025 229.685 88.7393 229.618 87.7816C229.44 85.2278 227.994 84.0455 225.281 84.2348C222.62 84.4204 220.609 85.4696 219.245 87.3825L216.535 112.913L202.968 113.859L209.437 52.5406L223.004 51.5942L220.253 77.6889C222.96 74.3457 226.522 72.5201 230.938 72.212C236.311 71.8371 239.88 72.7911 241.643 75.074C242.871 76.5921 243.554 78.3355 243.692 80.3041C243.829 82.2726 243.796 84.0927 243.591 85.7643L242.266 97.8057C242.235 98.1286 242.229 98.4231 242.248 98.6891C242.348 100.126 243.196 100.788 244.792 100.677ZM290.068 95.4333C290.165 96.8166 290.905 97.46 292.288 97.3635C293.724 97.2633 294.903 96.9138 295.824 96.3149L296.054 105.361C293.645 107.614 290.844 108.852 287.652 109.075C281.799 109.483 278.405 107.581 277.47 103.369C275.107 107.811 271.345 110.212 266.184 110.572C257.458 111.181 252.834 107.734 252.311 100.233C252.222 98.9557 252.256 97.5365 252.415 95.975L253.439 86.5208C253.956 81.673 255.633 77.7335 258.469 74.7021C261.354 71.6138 265.244 69.8989 270.139 69.5575C275.087 69.2123 278.519 70.1224 280.434 72.2876L280.666 69.8656L292.797 69.0194L290.081 94.4701C290.05 94.793 290.046 95.1141 290.068 95.4333ZM266.178 93.2506C266.105 93.7368 266.099 94.4056 266.158 95.2568C266.217 96.1081 266.676 96.9315 267.533 97.7271C268.387 98.4695 269.745 98.7758 271.607 98.6458C273.522 98.5122 275.12 97.6523 276.399 96.0661L277.858 82.4917C277.18 81.2024 275.75 80.6338 273.569 80.786C269.472 81.0718 267.215 83.2074 266.798 87.1927L266.178 93.2506ZM338.101 74.0388C338.227 75.8477 338.03 77.6257 337.511 79.3728C337.044 81.1161 336.546 82.4073 336.017 83.2462L335.217 84.4247L323.166 85.2653C324.411 83.9489 324.97 82.3862 324.844 80.5772C324.777 79.6195 324.404 78.8704 323.725 78.3297C323.095 77.732 322.248 77.4703 321.184 77.5446C319.375 77.6708 317.868 78.6847 316.664 80.5864L313.955 106.117L300.388 107.063L304.493 68.2034L317.103 67.3238L316.518 72.7376C319.25 68.2165 322.771 65.8057 327.08 65.505C330.538 65.2638 333.176 65.9084 334.994 67.439C336.865 68.9658 337.9 71.1658 338.101 74.0388ZM379.071 89.2244C379.167 90.6077 379.907 91.2512 381.29 91.1547C382.727 91.0544 383.905 90.7049 384.826 90.1061L385.056 99.152C382.647 101.405 379.846 102.643 376.654 102.866C370.802 103.274 367.408 101.372 366.472 97.1604C364.109 101.602 360.347 104.003 355.186 104.363C346.461 104.972 341.836 101.525 341.313 94.0237C341.224 92.7468 341.259 91.3276 341.417 89.7661L342.442 80.3119C342.959 75.4642 344.635 71.5246 347.471 68.4932C350.357 65.4049 354.247 63.6901 359.142 63.3486C364.09 63.0034 367.521 63.9135 369.437 66.0788L369.669 63.6568L381.799 62.8105L379.084 88.2612C379.053 88.5841 379.048 88.9052 379.071 89.2244ZM355.181 87.0417C355.108 87.5279 355.101 88.1967 355.16 89.048C355.22 89.8992 355.678 90.7227 356.536 91.5183C357.389 92.2606 358.747 92.5669 360.609 92.437C362.525 92.3034 364.122 91.4434 365.402 89.8572L366.86 76.2828C366.182 74.9935 364.753 74.425 362.571 74.5771C358.475 74.8629 356.218 76.9985 355.801 80.9839L355.181 87.0417ZM437.851 97.4738L437.456 84.9109L424.128 85.8406L421.092 98.643L405.849 99.7063L422.35 40.8152L448.686 38.978L453.014 96.416L437.851 97.4738ZM431.545 54.2078L426.654 74.9183L437.109 74.189L436.573 53.8571L431.545 54.2078ZM474.851 77.6509C474.758 78.6197 474.745 79.5829 474.812 80.5406C474.99 83.0944 476.516 84.2711 479.389 84.0706C481.73 83.9073 483.614 82.9472 485.042 81.1902L487.735 55.4203L501.302 54.4739L497.046 94.6274C496.347 101.466 494.034 107 490.105 111.231C486.23 115.457 481.605 117.758 476.232 118.133C470.858 118.508 466.906 117.794 464.374 115.993C461.896 114.188 460.545 111.689 460.323 108.497C460.007 103.974 462.52 99.7626 467.862 95.8614C464.777 95.3281 462.756 93.9454 461.798 91.7133C461.23 90.4698 460.891 89.05 460.779 87.4539C460.668 85.8578 460.688 84.2258 460.839 82.5579L463.554 57.1072L477.121 56.1608L474.851 77.6509ZM477.271 106.593C480.729 106.351 482.772 103.055 483.398 96.7023L483.873 92.0179C476.719 95.992 473.264 99.7349 473.509 103.246C473.583 104.31 473.935 105.141 474.565 105.739C475.252 106.386 476.154 106.671 477.271 106.593ZM542.891 77.7962C542.988 79.1795 543.728 79.8229 545.111 79.7264C546.548 79.6262 547.726 79.2767 548.647 78.6778L548.877 87.7237C546.468 89.9769 543.667 91.2148 540.475 91.4375C534.622 91.8457 531.228 89.944 530.293 85.7322C527.93 90.1741 524.168 92.575 519.007 92.9351C510.281 93.5438 505.657 90.0972 505.134 82.5955C505.045 81.3186 505.079 79.8994 505.238 78.3379L506.262 68.8837C506.779 64.0359 508.456 60.0964 511.292 57.065C514.177 53.9767 518.067 52.2618 522.962 51.9204C527.91 51.5752 531.342 52.4853 533.257 54.6505L533.489 52.2285L545.62 51.3823L542.904 76.833C542.873 77.1559 542.869 77.477 542.891 77.7962ZM519.001 75.6134C518.928 76.0997 518.922 76.7685 518.981 77.6197C519.04 78.471 519.499 79.2944 520.356 80.09C521.21 80.8324 522.568 81.1386 524.43 81.0087C526.345 80.8751 527.943 80.0152 529.222 78.429L530.681 64.8546C530.003 63.5653 528.573 62.9967 526.392 63.1489C522.295 63.4347 520.038 65.5703 519.621 69.5556L519.001 75.6134ZM591.842 76.4664C593.066 76.381 594.138 76.0389 595.059 75.4401L595.289 84.486C592.933 86.7354 589.946 87.9863 586.328 88.2387C582.71 88.4911 579.957 87.7208 578.067 85.928C576.231 84.1314 574.677 81.0053 573.404 76.5498L573.086 75.4492C571.98 75.6868 570.313 75.9367 568.086 76.199L566.778 88.4798L553.211 89.4263L559.679 28.1074L573.246 27.161L570.449 53.7401C573.347 50.0629 577.482 48.0368 582.856 47.6619C586.474 47.4095 589.197 48.1284 591.026 49.8186C592.904 51.4519 593.947 53.7582 594.155 56.7376C594.556 62.4837 591.864 67.1891 586.078 70.854L587.162 73.7455C587.888 75.7265 589.448 76.6334 591.842 76.4664ZM576.75 58.9943C573.877 59.1948 571.418 60.7296 569.372 63.5989L568.862 68.9274C576.714 68.0588 580.504 65.6826 580.234 61.7987C580.17 60.8942 579.828 60.1964 579.205 59.7052C578.632 59.1571 577.814 58.9201 576.75 58.9943ZM638.362 71.1361C638.459 72.5194 639.199 73.1628 640.582 73.0663C642.019 72.9661 643.197 72.6165 644.118 72.0177L644.348 81.0636C641.939 83.3167 639.138 84.5546 635.946 84.7773C630.093 85.1856 626.699 83.2838 625.764 79.0721C623.401 83.514 619.639 85.9149 614.478 86.2749C605.753 86.8836 601.128 83.4371 600.605 75.9353C600.516 74.6584 600.55 73.2392 600.709 71.6778L601.733 62.2235C602.251 57.3758 603.927 53.4362 606.763 50.4049C609.648 47.3166 613.539 45.6017 618.433 45.2602C623.381 44.9151 626.813 45.8251 628.728 47.9904L628.96 45.5684L641.091 44.7222L638.375 70.1728C638.344 70.4958 638.34 70.8169 638.362 71.1361ZM614.473 68.9533C614.4 69.4396 614.393 70.1083 614.452 70.9596C614.512 71.8109 614.97 72.6343 615.827 73.4299C616.681 74.1723 618.039 74.4785 619.901 74.3486C621.817 74.215 623.414 73.3551 624.693 71.7689L626.152 58.1944C625.474 56.9052 624.044 56.3366 621.863 56.4888C617.766 56.7746 615.509 58.9101 615.092 62.8955L614.473 68.9533Z"/>
</mask>
<path d="M21.3941 110.086C21.6502 113.757 24.4118 115.409 29.679 115.042C34.9994 114.671 37.5446 112.836 37.3144 109.537C37.192 107.781 36.1873 106.408 34.3004 105.417C32.4135 104.426 30.1406 103.649 27.4816 103.086C24.8759 102.519 22.2361 101.848 19.5623 101.072C16.938 100.239 14.649 98.8484 12.6953 96.8997C10.7379 94.8977 9.64971 92.3272 9.43073 89.1882C8.49913 75.834 16.6258 68.5574 33.8107 67.3586C40.0888 66.9206 44.9074 67.7874 48.2667 69.9589C51.6754 72.0735 53.5264 75.2323 53.8196 79.4354C53.9273 80.9783 53.8184 82.4829 53.493 83.9491C53.217 85.3584 52.8867 86.3705 52.5019 86.9854L51.9302 87.9877L37.8046 88.9731C38.8897 87.6677 39.3673 86.084 39.2374 84.2218C38.9961 80.7636 36.6143 79.1922 32.092 79.5077C26.3992 79.9048 23.6789 81.9123 23.9313 85.5302C24.0575 87.3391 25.0622 88.7125 26.9454 89.6504C28.8285 90.5883 31.0693 91.2874 33.6676 91.7477C36.3154 92.1511 38.9744 92.7141 41.6445 93.4367C44.3146 94.1593 46.6283 95.5216 48.5857 97.5235C50.5394 99.4723 51.6332 102.123 51.867 105.474C52.3384 112.231 50.6674 117.4 46.854 120.981C43.0369 124.508 36.9252 126.565 28.519 127.152C20.1127 127.738 14.2628 126.649 10.9691 123.885C8.52542 121.81 7.16627 118.804 6.89161 114.867C6.78769 113.377 6.8341 111.744 7.03084 109.966L7.18118 108.672L21.5463 107.67L21.4535 108.639C21.3842 109.178 21.3644 109.661 21.3941 110.086ZM96.8902 108.91C96.9867 110.293 97.7266 110.936 99.1099 110.84C100.546 110.74 101.725 110.39 102.646 109.791L102.876 118.837C100.467 121.09 97.6659 122.328 94.4737 122.551C88.4616 122.97 85.0281 120.884 84.1732 116.292C81.3038 121.144 77.1558 123.759 71.7289 124.137C66.3553 124.512 62.7851 123.532 61.0183 121.196C59.8465 119.727 59.192 118.008 59.0547 116.04C58.9174 114.071 58.9508 112.251 59.1549 110.58L61.8704 85.129L75.4374 84.1825L73.1674 105.673C73.0746 106.641 73.0616 107.605 73.1284 108.562C73.3066 111.116 74.8322 112.293 77.7052 112.092C80.0994 111.925 81.9572 110.967 83.2786 109.218L86.0516 83.4421L99.6186 82.4956L96.9032 107.946C96.8723 108.269 96.8679 108.59 96.8902 108.91ZM132.369 94.1648C132.209 91.877 131.012 90.8111 128.778 90.9669C126.596 91.1191 124.845 92.07 123.523 93.8195L120.83 119.589L107.263 120.536L111.369 81.6759L123.978 80.7963L123.429 85.5661C126.297 81.4632 130.125 79.2448 134.913 78.9107C139.702 78.5767 142.896 79.53 144.496 81.7708C145.504 83.1974 146.075 84.8684 146.209 86.7837C146.342 88.6991 146.334 90.4907 146.183 92.1586L144.885 104.599C144.854 104.922 144.848 105.216 144.867 105.482C144.967 106.919 145.815 107.582 147.411 107.47C148.635 107.385 149.707 107.043 150.628 106.444L150.858 115.49C148.502 117.739 145.728 118.975 142.536 119.198C135.3 119.703 131.47 116.922 131.047 110.857C130.973 109.793 131 108.642 131.127 107.403L132.302 96.6555C132.395 95.6867 132.417 94.8564 132.369 94.1648ZM192.649 102.229C192.745 103.613 193.485 104.256 194.868 104.16C196.305 104.059 197.483 103.71 198.404 103.111L198.634 112.157C196.225 114.41 193.424 115.648 190.232 115.871C184.38 116.279 180.986 114.377 180.05 110.165C177.687 114.607 173.925 117.008 168.764 117.368C160.039 117.977 155.415 114.53 154.891 107.029C154.802 105.752 154.837 104.333 154.995 102.771L156.02 93.3168C156.537 88.4691 158.213 84.5295 161.049 81.4981C163.935 78.4099 167.825 76.695 172.72 76.3535C177.668 76.0083 181.099 76.9184 183.015 79.0837L183.247 76.6617L195.377 75.8154L192.662 101.266C192.631 101.589 192.626 101.91 192.649 102.229ZM168.759 100.047C168.686 100.533 168.679 101.202 168.738 102.053C168.798 102.904 169.256 103.728 170.114 104.523C170.967 105.266 172.325 105.572 174.188 105.442C176.103 105.308 177.7 104.448 178.98 102.862L180.439 89.2877C179.76 87.9984 178.331 87.4299 176.149 87.5821C172.053 87.8679 169.796 90.0034 169.379 93.9888L168.759 100.047ZM244.792 100.677C246.016 100.591 247.088 100.249 248.008 99.6505L248.239 108.696C245.883 110.946 243.109 112.182 239.916 112.405C232.681 112.909 228.851 110.129 228.428 104.064C228.354 103 228.381 101.848 228.508 100.61L229.579 90.6713C229.672 89.7025 229.685 88.7393 229.618 87.7816C229.44 85.2278 227.994 84.0455 225.281 84.2348C222.62 84.4204 220.609 85.4696 219.245 87.3825L216.535 112.913L202.968 113.859L209.437 52.5406L223.004 51.5942L220.253 77.6889C222.96 74.3457 226.522 72.5201 230.938 72.212C236.311 71.8371 239.88 72.7911 241.643 75.074C242.871 76.5921 243.554 78.3355 243.692 80.3041C243.829 82.2726 243.796 84.0927 243.591 85.7643L242.266 97.8057C242.235 98.1286 242.229 98.4231 242.248 98.6891C242.348 100.126 243.196 100.788 244.792 100.677ZM290.068 95.4333C290.165 96.8166 290.905 97.46 292.288 97.3635C293.724 97.2633 294.903 96.9138 295.824 96.3149L296.054 105.361C293.645 107.614 290.844 108.852 287.652 109.075C281.799 109.483 278.405 107.581 277.47 103.369C275.107 107.811 271.345 110.212 266.184 110.572C257.458 111.181 252.834 107.734 252.311 100.233C252.222 98.9557 252.256 97.5365 252.415 95.975L253.439 86.5208C253.956 81.673 255.633 77.7335 258.469 74.7021C261.354 71.6138 265.244 69.8989 270.139 69.5575C275.087 69.2123 278.519 70.1224 280.434 72.2876L280.666 69.8656L292.797 69.0194L290.081 94.4701C290.05 94.793 290.046 95.1141 290.068 95.4333ZM266.178 93.2506C266.105 93.7368 266.099 94.4056 266.158 95.2568C266.217 96.1081 266.676 96.9315 267.533 97.7271C268.387 98.4695 269.745 98.7758 271.607 98.6458C273.522 98.5122 275.12 97.6523 276.399 96.0661L277.858 82.4917C277.18 81.2024 275.75 80.6338 273.569 80.786C269.472 81.0718 267.215 83.2074 266.798 87.1927L266.178 93.2506ZM338.101 74.0388C338.227 75.8477 338.03 77.6257 337.511 79.3728C337.044 81.1161 336.546 82.4073 336.017 83.2462L335.217 84.4247L323.166 85.2653C324.411 83.9489 324.97 82.3862 324.844 80.5772C324.777 79.6195 324.404 78.8704 323.725 78.3297C323.095 77.732 322.248 77.4703 321.184 77.5446C319.375 77.6708 317.868 78.6847 316.664 80.5864L313.955 106.117L300.388 107.063L304.493 68.2034L317.103 67.3238L316.518 72.7376C319.25 68.2165 322.771 65.8057 327.08 65.505C330.538 65.2638 333.176 65.9084 334.994 67.439C336.865 68.9658 337.9 71.1658 338.101 74.0388ZM379.071 89.2244C379.167 90.6077 379.907 91.2512 381.29 91.1547C382.727 91.0544 383.905 90.7049 384.826 90.1061L385.056 99.152C382.647 101.405 379.846 102.643 376.654 102.866C370.802 103.274 367.408 101.372 366.472 97.1604C364.109 101.602 360.347 104.003 355.186 104.363C346.461 104.972 341.836 101.525 341.313 94.0237C341.224 92.7468 341.259 91.3276 341.417 89.7661L342.442 80.3119C342.959 75.4642 344.635 71.5246 347.471 68.4932C350.357 65.4049 354.247 63.6901 359.142 63.3486C364.09 63.0034 367.521 63.9135 369.437 66.0788L369.669 63.6568L381.799 62.8105L379.084 88.2612C379.053 88.5841 379.048 88.9052 379.071 89.2244ZM355.181 87.0417C355.108 87.5279 355.101 88.1967 355.16 89.048C355.22 89.8992 355.678 90.7227 356.536 91.5183C357.389 92.2606 358.747 92.5669 360.609 92.437C362.525 92.3034 364.122 91.4434 365.402 89.8572L366.86 76.2828C366.182 74.9935 364.753 74.425 362.571 74.5771C358.475 74.8629 356.218 76.9985 355.801 80.9839L355.181 87.0417ZM437.851 97.4738L437.456 84.9109L424.128 85.8406L421.092 98.643L405.849 99.7063L422.35 40.8152L448.686 38.978L453.014 96.416L437.851 97.4738ZM431.545 54.2078L426.654 74.9183L437.109 74.189L436.573 53.8571L431.545 54.2078ZM474.851 77.6509C474.758 78.6197 474.745 79.5829 474.812 80.5406C474.99 83.0944 476.516 84.2711 479.389 84.0706C481.73 83.9073 483.614 82.9472 485.042 81.1902L487.735 55.4203L501.302 54.4739L497.046 94.6274C496.347 101.466 494.034 107 490.105 111.231C486.23 115.457 481.605 117.758 476.232 118.133C470.858 118.508 466.906 117.794 464.374 115.993C461.896 114.188 460.545 111.689 460.323 108.497C460.007 103.974 462.52 99.7626 467.862 95.8614C464.777 95.3281 462.756 93.9454 461.798 91.7133C461.23 90.4698 460.891 89.05 460.779 87.4539C460.668 85.8578 460.688 84.2258 460.839 82.5579L463.554 57.1072L477.121 56.1608L474.851 77.6509ZM477.271 106.593C480.729 106.351 482.772 103.055 483.398 96.7023L483.873 92.0179C476.719 95.992 473.264 99.7349 473.509 103.246C473.583 104.31 473.935 105.141 474.565 105.739C475.252 106.386 476.154 106.671 477.271 106.593ZM542.891 77.7962C542.988 79.1795 543.728 79.8229 545.111 79.7264C546.548 79.6262 547.726 79.2767 548.647 78.6778L548.877 87.7237C546.468 89.9769 543.667 91.2148 540.475 91.4375C534.622 91.8457 531.228 89.944 530.293 85.7322C527.93 90.1741 524.168 92.575 519.007 92.9351C510.281 93.5438 505.657 90.0972 505.134 82.5955C505.045 81.3186 505.079 79.8994 505.238 78.3379L506.262 68.8837C506.779 64.0359 508.456 60.0964 511.292 57.065C514.177 53.9767 518.067 52.2618 522.962 51.9204C527.91 51.5752 531.342 52.4853 533.257 54.6505L533.489 52.2285L545.62 51.3823L542.904 76.833C542.873 77.1559 542.869 77.477 542.891 77.7962ZM519.001 75.6134C518.928 76.0997 518.922 76.7685 518.981 77.6197C519.04 78.471 519.499 79.2944 520.356 80.09C521.21 80.8324 522.568 81.1386 524.43 81.0087C526.345 80.8751 527.943 80.0152 529.222 78.429L530.681 64.8546C530.003 63.5653 528.573 62.9967 526.392 63.1489C522.295 63.4347 520.038 65.5703 519.621 69.5556L519.001 75.6134ZM591.842 76.4664C593.066 76.381 594.138 76.0389 595.059 75.4401L595.289 84.486C592.933 86.7354 589.946 87.9863 586.328 88.2387C582.71 88.4911 579.957 87.7208 578.067 85.928C576.231 84.1314 574.677 81.0053 573.404 76.5498L573.086 75.4492C571.98 75.6868 570.313 75.9367 568.086 76.199L566.778 88.4798L553.211 89.4263L559.679 28.1074L573.246 27.161L570.449 53.7401C573.347 50.0629 577.482 48.0368 582.856 47.6619C586.474 47.4095 589.197 48.1284 591.026 49.8186C592.904 51.4519 593.947 53.7582 594.155 56.7376C594.556 62.4837 591.864 67.1891 586.078 70.854L587.162 73.7455C587.888 75.7265 589.448 76.6334 591.842 76.4664ZM576.75 58.9943C573.877 59.1948 571.418 60.7296 569.372 63.5989L568.862 68.9274C576.714 68.0588 580.504 65.6826 580.234 61.7987C580.17 60.8942 579.828 60.1964 579.205 59.7052C578.632 59.1571 577.814 58.9201 576.75 58.9943ZM638.362 71.1361C638.459 72.5194 639.199 73.1628 640.582 73.0663C642.019 72.9661 643.197 72.6165 644.118 72.0177L644.348 81.0636C641.939 83.3167 639.138 84.5546 635.946 84.7773C630.093 85.1856 626.699 83.2838 625.764 79.0721C623.401 83.514 619.639 85.9149 614.478 86.2749C605.753 86.8836 601.128 83.4371 600.605 75.9353C600.516 74.6584 600.55 73.2392 600.709 71.6778L601.733 62.2235C602.251 57.3758 603.927 53.4362 606.763 50.4049C609.648 47.3166 613.539 45.6017 618.433 45.2602C623.381 44.9151 626.813 45.8251 628.728 47.9904L628.96 45.5684L641.091 44.7222L638.375 70.1728C638.344 70.4958 638.34 70.8169 638.362 71.1361ZM614.473 68.9533C614.4 69.4396 614.393 70.1083 614.452 70.9596C614.512 71.8109 614.97 72.6343 615.827 73.4299C616.681 74.1723 618.039 74.4785 619.901 74.3486C621.817 74.215 623.414 73.3551 624.693 71.7689L626.152 58.1944C625.474 56.9052 624.044 56.3366 621.863 56.4888C617.766 56.7746 615.509 58.9101 615.092 62.8955L614.473 68.9533Z" fill="#F36DAF"/>
<path d="M34.3004 105.417L38.9505 96.5637L38.9505 96.5637L34.3004 105.417ZM27.4816 103.086L25.3565 112.857L25.3834 112.863L25.4102 112.869L27.4816 103.086ZM19.5623 101.072L16.5378 110.604L16.6563 110.641L16.7757 110.676L19.5623 101.072ZM12.6953 96.8997L5.54509 103.891L5.58885 103.935L5.63316 103.98L12.6953 96.8997ZM48.2667 69.9589L42.838 78.357L42.9161 78.4076L42.9952 78.4566L48.2667 69.9589ZM53.493 83.9491L43.7305 81.7824L43.7034 81.9047L43.6793 82.0277L53.493 83.9491ZM52.5019 86.9854L44.0248 81.6808L43.9166 81.8537L43.8155 82.0309L52.5019 86.9854ZM51.9302 87.9877L52.6261 97.9634L57.965 97.591L60.6166 92.9422L51.9302 87.9877ZM37.8046 88.9731L30.1146 82.5805L15.1539 100.577L38.5005 98.9488L37.8046 88.9731ZM26.9454 89.6504L22.4873 98.6017L22.4873 98.6017L26.9454 89.6504ZM33.6676 91.7477L31.9233 101.594L32.0422 101.615L32.1616 101.634L33.6676 91.7477ZM41.6445 93.4367L39.0322 103.089L39.0322 103.089L41.6445 93.4367ZM48.5857 97.5235L41.4355 104.515L41.4793 104.559L41.5236 104.604L48.5857 97.5235ZM46.854 120.981L53.641 128.325L53.6702 128.298L53.6991 128.271L46.854 120.981ZM10.9691 123.885L4.49647 131.508L4.51849 131.527L4.54062 131.545L10.9691 123.885ZM7.03084 109.966L-2.9023 108.811L-2.90547 108.838L-2.90849 108.866L7.03084 109.966ZM7.18118 108.672L6.48527 98.6962L-1.79387 99.2738L-2.75196 107.518L7.18118 108.672ZM21.5463 107.67L31.5007 108.623L32.6263 96.8726L20.8504 97.6941L21.5463 107.67ZM21.4535 108.639L31.372 109.913L31.3925 109.753L31.4079 109.592L21.4535 108.639ZM11.4183 110.782C11.7362 115.338 13.9009 119.895 18.5242 122.66C22.461 125.015 26.8894 125.261 30.3749 125.017L28.9831 105.066C28.2138 105.12 27.8449 105.075 27.778 105.064C27.7126 105.054 28.1436 105.109 28.7905 105.496C29.5046 105.924 30.2346 106.611 30.7551 107.529C31.2487 108.4 31.3507 109.116 31.3698 109.39L11.4183 110.782ZM30.3749 125.017C33.7424 124.783 37.9224 124.025 41.4263 121.499C45.6844 118.429 47.6304 113.718 47.2902 108.841L27.3387 110.233C27.3013 109.697 27.3512 108.733 27.8507 107.626C28.3612 106.494 29.1117 105.721 29.7301 105.275C30.2846 104.876 30.6247 104.811 30.4484 104.86C30.2833 104.907 29.8282 105.007 28.9831 105.066L30.3749 125.017ZM47.2902 108.841C46.8727 102.856 43.154 98.7716 38.9505 96.5637L29.6503 114.27C29.5759 114.231 28.9944 113.909 28.3981 113.094C27.7477 112.205 27.4039 111.168 27.3387 110.233L47.2902 108.841ZM38.9505 96.5637C36.0635 95.0473 32.8765 94.0062 29.5531 93.3026L25.4102 112.869C27.4047 113.291 28.7636 113.804 29.6503 114.27L38.9505 96.5637ZM29.6068 93.3141C27.2328 92.7978 24.8137 92.1832 22.3489 91.468L16.7757 110.676C19.6585 111.512 22.5189 112.24 25.3565 112.857L29.6068 93.3141ZM22.5868 91.5403C21.4884 91.1917 20.583 90.6432 19.7574 89.8197L5.63316 103.98C8.71498 107.054 12.3876 109.287 16.5378 110.604L22.5868 91.5403ZM19.8455 89.9087C19.7536 89.8147 19.4821 89.5767 19.4065 88.4923L-0.545026 89.8841C-0.182715 95.0777 1.72215 99.9807 5.54509 103.891L19.8455 89.9087ZM19.4065 88.4923C19.1014 84.1191 20.2577 82.2753 21.4977 81.1651C23.1896 79.6502 26.9305 77.8629 34.5066 77.3344L33.1148 57.3828C23.506 58.0532 14.5911 60.5035 8.15637 66.2651C1.26966 72.4314 -1.17155 80.903 -0.545026 89.8841L19.4065 88.4923ZM34.5066 77.3344C39.7801 76.9665 42.0727 77.8624 42.838 78.357L53.6954 61.5607C47.7421 57.7124 40.3974 56.8748 33.1148 57.3828L34.5066 77.3344ZM42.9952 78.4566C43.4525 78.7403 43.5571 78.9243 43.5836 78.9696C43.62 79.0318 43.7883 79.3352 43.8439 80.1313L63.7954 78.7395C63.2918 71.5211 59.8353 65.3675 53.5382 61.4611L42.9952 78.4566ZM43.8439 80.1313C43.8866 80.7436 43.8414 81.283 43.7305 81.7824L63.2554 86.1159C63.7954 83.6828 63.968 81.2131 63.7954 78.7395L43.8439 80.1313ZM43.6793 82.0277C43.6388 82.2346 43.6033 82.3909 43.5753 82.5027C43.5469 82.6159 43.5308 82.6654 43.5319 82.6621C43.532 82.6616 43.5599 82.5754 43.6256 82.4258C43.6893 82.2809 43.815 82.016 44.0248 81.6808L60.9789 92.2901C62.3773 90.0555 62.9799 87.5394 63.3066 85.8705L43.6793 82.0277ZM43.8155 82.0309L43.2439 83.0331L60.6166 92.9422L61.1882 91.94L43.8155 82.0309ZM51.2343 78.0119L37.1086 78.9973L38.5005 98.9488L52.6261 97.9634L51.2343 78.0119ZM45.4945 95.3656C48.3966 91.8745 49.5028 87.6777 49.2131 83.5259L29.2616 84.9178C29.253 84.794 29.2494 84.4265 29.4025 83.919C29.5608 83.3941 29.8236 82.9306 30.1146 82.5805L45.4945 95.3656ZM49.2131 83.5259C48.9277 79.4346 47.1335 74.9767 42.7771 72.1025C38.9539 69.5802 34.6473 69.3051 31.3961 69.5319L32.7879 89.4834C34.059 89.3947 33.2045 89.7476 31.7631 88.7967C30.9497 88.26 30.251 87.4931 29.7884 86.606C29.3557 85.7764 29.2763 85.1275 29.2616 84.9178L49.2131 83.5259ZM31.3961 69.5319C27.8143 69.7818 23.4564 70.5992 19.8442 73.265C15.4996 76.4713 13.6121 81.3019 13.9556 86.2261L33.9071 84.8343C33.9363 85.2527 33.9065 86.1114 33.4569 87.1361C32.9937 88.1921 32.3016 88.9282 31.7202 89.3573C31.203 89.7389 30.9038 89.7865 31.1279 89.7224C31.3433 89.6609 31.8622 89.548 32.7879 89.4834L31.3961 69.5319ZM13.9556 86.2261C14.372 92.1953 18.0363 96.3849 22.4873 98.6017L31.4034 80.6991C31.5601 80.7772 32.2122 81.1402 32.8505 82.0128C33.5353 82.949 33.848 83.9868 33.9071 84.8343L13.9556 86.2261ZM22.4873 98.6017C25.4128 100.059 28.6103 101.007 31.9233 101.594L35.412 81.901C33.5282 81.5673 32.2443 81.1179 31.4034 80.6991L22.4873 98.6017ZM32.1616 101.634C34.4246 101.978 36.7143 102.462 39.0322 103.089L44.2568 83.7839C41.2345 82.966 38.2063 82.3238 35.1737 81.8618L32.1616 101.634ZM39.0322 103.089C39.9572 103.34 40.7101 103.773 41.4355 104.515L55.7359 90.5325C52.5466 87.2705 48.672 84.9788 44.2568 83.7839L39.0322 103.089ZM41.5236 104.604C41.528 104.608 41.5649 104.636 41.6276 104.788C41.7008 104.965 41.8366 105.387 41.8912 106.17L61.8428 104.779C61.479 99.5641 59.6643 94.4499 55.6479 90.4435L41.5236 104.604ZM41.8912 106.17C42.2201 110.884 41.019 112.742 40.0088 113.691L53.6991 128.271C60.3158 122.058 62.4567 113.579 61.8428 104.779L41.8912 106.17ZM40.067 113.637C38.6818 114.917 35.2684 116.657 27.823 117.176L29.2149 137.128C38.582 136.474 47.3919 134.1 53.641 128.325L40.067 113.637ZM27.823 117.176C24.1448 117.433 21.4841 117.284 19.6567 116.944C17.8067 116.599 17.3135 116.155 17.3975 116.225L4.54062 131.545C11.0191 136.982 20.3876 137.743 29.2149 137.128L27.823 117.176ZM17.4417 116.263C17.3813 116.211 17.317 116.15 17.2289 115.955C17.1235 115.722 16.9379 115.183 16.8674 114.171L-3.08414 115.563C-2.66823 121.525 -0.455675 127.303 4.49647 131.508L17.4417 116.263ZM16.8674 114.171C16.8124 113.384 16.8269 112.36 16.9702 111.065L-2.90849 108.866C-3.15873 111.127 -3.23704 113.371 -3.08414 115.563L16.8674 114.171ZM16.964 111.12L17.1143 109.826L-2.75196 107.518L-2.9023 108.811L16.964 111.12ZM7.8771 118.648L22.2422 117.646L20.8504 97.6941L6.48527 98.6962L7.8771 118.648ZM11.5918 106.716L11.499 107.685L31.4079 109.592L31.5007 108.623L11.5918 106.716ZM11.535 107.365C11.4034 108.389 11.3323 109.549 11.4183 110.782L31.3698 109.39C31.3837 109.59 31.3815 109.735 31.3782 109.815C31.3749 109.896 31.3697 109.931 31.372 109.913L11.535 107.365ZM102.646 109.791L112.642 109.537L112.187 91.6541L97.1925 101.409L102.646 109.791ZM102.876 118.837L109.706 126.141L112.987 123.073L112.872 118.583L102.876 118.837ZM84.1732 116.292L94.0042 114.462L89.1277 88.2717L75.5659 111.202L84.1732 116.292ZM61.0183 121.196L68.9939 115.163L68.9159 115.06L68.8353 114.959L61.0183 121.196ZM59.1549 110.58L69.0812 111.792L69.0904 111.716L69.0985 111.641L59.1549 110.58ZM61.8704 85.129L61.1745 75.1532L52.8158 75.7363L51.9268 84.0681L61.8704 85.129ZM75.4374 84.1825L85.3821 85.233L86.6344 73.3771L74.7415 74.2068L75.4374 84.1825ZM73.1674 105.673L63.2228 104.622L63.2176 104.671L63.213 104.719L73.1674 105.673ZM83.2786 109.218L91.2582 115.245L92.9254 113.037L93.2213 110.287L83.2786 109.218ZM86.0516 83.4421L85.3557 73.4663L77.0044 74.0489L76.109 82.3724L86.0516 83.4421ZM99.6186 82.4956L109.562 83.5565L110.828 71.6893L98.9227 72.5199L99.6186 82.4956ZM96.9032 107.946L86.9596 106.885L86.9539 106.939L86.9488 106.993L96.9032 107.946ZM86.9145 109.605C87.07 111.835 87.8785 115.3 90.9557 117.976C94.0328 120.651 97.5765 120.971 99.8058 120.816L98.414 100.864C99.2601 100.805 101.742 100.851 104.079 102.884C106.417 104.916 106.807 107.368 106.866 108.214L86.9145 109.605ZM99.8058 120.816C102.426 120.633 105.378 119.943 108.099 118.174L97.1925 101.409C98.072 100.837 98.6666 100.846 98.414 100.864L99.8058 120.816ZM92.6488 110.045L92.8788 119.091L112.872 118.583L112.642 109.537L92.6488 110.045ZM96.0449 111.534C95.2572 112.27 94.6035 112.517 93.7778 112.575L95.1696 132.527C100.728 132.139 105.676 129.91 109.706 126.141L96.0449 111.534ZM93.7778 112.575C92.8904 112.637 92.3893 112.584 92.1858 112.548C91.9962 112.514 92.1958 112.52 92.582 112.755C93.0056 113.012 93.4165 113.402 93.7122 113.863C93.9871 114.291 94.0224 114.56 94.0042 114.462L74.3421 118.123C75.1971 122.715 77.646 127.082 82.197 129.847C86.3645 132.379 91.0744 132.812 95.1696 132.527L93.7778 112.575ZM75.5659 111.202C74.2982 113.345 73.0413 114.022 71.033 114.162L72.4249 134.113C81.2702 133.496 88.3094 128.943 92.7804 121.383L75.5659 111.202ZM71.033 114.162C70.0584 114.23 69.2937 114.227 68.7126 114.187C68.1275 114.148 67.7995 114.076 67.6696 114.04C67.5437 114.006 67.6798 114.026 67.9597 114.2C68.2588 114.386 68.6428 114.699 68.9939 115.163L53.0426 127.228C58.0817 133.891 66.4227 134.532 72.4249 134.113L71.033 114.162ZM68.8353 114.959C68.8535 114.982 68.8818 115.021 68.9131 115.076C68.9445 115.131 68.972 115.189 68.9938 115.246C69.0408 115.37 69.0357 115.419 69.0304 115.344L49.0789 116.736C49.3499 120.62 50.699 124.296 53.2012 127.432L68.8353 114.959ZM69.0304 115.344C68.9302 113.906 68.9662 112.734 69.0812 111.792L49.2287 109.367C48.9354 111.769 48.9046 114.236 49.0789 116.736L69.0304 115.344ZM69.0985 111.641L71.8139 86.1899L51.9268 84.0681L49.2114 109.519L69.0985 111.641ZM62.5663 95.1047L76.1333 94.1583L74.7415 74.2068L61.1745 75.1532L62.5663 95.1047ZM65.4927 83.1321L63.2228 104.622L83.1121 106.723L85.3821 85.233L65.4927 83.1321ZM63.213 104.719C63.0684 106.229 63.047 107.744 63.1527 109.258L83.1042 107.866C83.0762 107.466 83.0809 107.054 83.1219 106.626L63.213 104.719ZM63.1527 109.258C63.3717 112.397 64.5937 116.421 68.2988 119.278C71.7662 121.953 75.6974 122.257 78.4011 122.068L77.0093 102.117C77.0158 102.116 77.1026 102.11 77.2573 102.119C77.412 102.128 77.6565 102.153 77.9698 102.222C78.612 102.365 79.552 102.7 80.5136 103.442C82.6932 105.123 83.0634 107.281 83.1042 107.866L63.1527 109.258ZM78.4011 122.068C83.3727 121.721 88.0166 119.536 91.2582 115.245L75.2991 103.19C75.4963 102.929 75.8419 102.602 76.31 102.361C76.7557 102.131 77.0494 102.114 77.0093 102.117L78.4011 122.068ZM93.2213 110.287L95.9942 84.5117L76.109 82.3724L73.336 108.148L93.2213 110.287ZM86.7475 93.4178L100.315 92.4714L98.9227 72.5199L85.3557 73.4663L86.7475 93.4178ZM89.6751 81.4347L86.9596 106.885L106.847 109.007L109.562 83.5565L89.6751 81.4347ZM86.9488 106.993C86.866 107.856 86.8533 108.729 86.9145 109.605L106.866 108.214C106.883 108.451 106.879 108.682 106.858 108.9L86.9488 106.993ZM123.523 93.8195L115.544 87.7924L113.867 90.0127L113.578 92.7801L123.523 93.8195ZM120.83 119.589L121.526 129.565L129.903 128.981L130.776 120.629L120.83 119.589ZM107.263 120.536L97.3186 119.485L96.0659 131.341L107.959 130.512L107.263 120.536ZM111.369 81.6759L110.673 71.7002L102.305 72.2839L101.424 80.6253L111.369 81.6759ZM123.978 80.7963L133.913 81.9405L135.29 69.9829L123.282 70.8205L123.978 80.7963ZM123.429 85.5661L113.494 84.4218L131.625 91.2955L123.429 85.5661ZM144.496 81.7708L152.662 75.9988L152.648 75.9794L152.634 75.9602L144.496 81.7708ZM146.183 92.1586L156.129 93.1958L156.136 93.128L156.142 93.06L146.183 92.1586ZM144.885 104.599L134.939 103.562L134.935 103.604L134.931 103.645L144.885 104.599ZM150.628 106.444L160.624 106.19L160.17 88.3069L145.175 98.0615L150.628 106.444ZM150.858 115.49L157.764 122.722L160.967 119.664L160.855 115.236L150.858 115.49ZM131.127 107.403L121.186 106.317L121.183 106.348L121.18 106.38L131.127 107.403ZM132.302 96.6555L142.243 97.7421L142.25 97.6756L142.256 97.609L132.302 96.6555ZM142.345 93.4689C142.162 90.8454 141.256 87.0791 138.002 84.1812C134.702 81.2428 130.797 80.8018 128.082 80.9912L129.474 100.943C128.993 100.976 126.804 100.99 124.701 99.1178C122.644 97.2858 122.417 95.1964 122.393 94.8607L142.345 93.4689ZM128.082 80.9912C123.007 81.3452 118.603 83.7426 115.544 87.7924L131.503 99.8466C131.391 99.9955 131.099 100.311 130.599 100.583C130.099 100.854 129.67 100.929 129.474 100.943L128.082 80.9912ZM113.578 92.7801L110.884 118.55L130.776 120.629L133.469 94.8589L113.578 92.7801ZM120.134 109.614L106.567 110.56L107.959 130.512L121.526 129.565L120.134 109.614ZM117.208 121.587L121.313 82.7266L101.424 80.6253L97.3186 119.485L117.208 121.587ZM112.065 91.6517L124.674 90.772L123.282 70.8205L110.673 71.7002L112.065 91.6517ZM114.044 79.652L113.494 84.4218L133.363 86.7103L133.913 81.9405L114.044 79.652ZM131.625 91.2955C132.848 89.5453 133.98 89.0001 135.609 88.8865L134.218 68.935C126.27 69.4894 119.746 73.3811 115.233 79.8367L131.625 91.2955ZM135.609 88.8865C136.41 88.8306 137.008 88.8387 137.432 88.8716C137.859 88.9047 138.041 88.9577 138.04 88.9575C138.033 88.9552 137.798 88.8843 137.452 88.6536C137.089 88.4115 136.695 88.0539 136.357 87.5814L152.634 75.9602C147.862 69.2763 139.881 68.5398 134.218 68.935L135.609 88.8865ZM136.33 87.5428C136.306 87.5099 136.283 87.471 136.261 87.429C136.24 87.387 136.226 87.3516 136.218 87.3276C136.209 87.3039 136.21 87.2999 136.214 87.3209C136.218 87.3424 136.227 87.3937 136.233 87.4797L156.185 86.0878C155.937 82.5333 154.83 79.0656 152.662 75.9988L136.33 87.5428ZM136.233 87.4797C136.335 88.9384 136.32 90.1908 136.223 91.2572L156.142 93.06C156.347 90.7906 156.35 88.4598 156.185 86.0878L136.233 87.4797ZM136.237 91.1213L134.939 103.562L154.831 105.636L156.129 93.1958L136.237 91.1213ZM134.931 103.645C134.858 104.404 134.827 105.26 134.891 106.178L154.843 104.787C154.869 105.173 154.851 105.44 154.84 105.553L134.931 103.645ZM134.891 106.178C135.068 108.722 136.078 112.325 139.422 114.937C142.553 117.383 146.016 117.592 148.107 117.446L146.715 97.4945C147.211 97.4599 149.451 97.3928 151.734 99.1763C154.23 101.126 154.765 103.68 154.843 104.787L134.891 106.178ZM148.107 117.446C150.824 117.256 153.575 116.456 156.081 114.826L145.175 98.0615C145.482 97.8613 145.799 97.7169 146.093 97.6229C146.383 97.5305 146.602 97.5024 146.715 97.4945L148.107 117.446ZM140.631 106.698L140.861 115.744L160.855 115.236L160.624 106.19L140.631 106.698ZM143.952 108.257C143.25 108.928 142.66 109.165 141.84 109.222L143.232 129.174C148.795 128.786 153.754 126.551 157.764 122.722L143.952 108.257ZM141.84 109.222C140.695 109.302 140.043 109.223 139.762 109.166C139.506 109.113 139.717 109.113 140.112 109.399C140.305 109.539 140.497 109.716 140.667 109.923C140.836 110.127 140.948 110.317 141.016 110.457C141.146 110.729 141.061 110.707 141.023 110.161L121.072 111.553C121.426 116.631 123.405 121.985 128.362 125.584C132.961 128.923 138.463 129.506 143.232 129.174L141.84 109.222ZM141.023 110.161C140.995 109.756 140.996 109.186 141.075 108.427L121.18 106.38C121.003 108.097 120.951 109.831 121.072 111.553L141.023 110.161ZM141.068 108.49L142.243 97.7421L122.361 95.5688L121.186 106.317L141.068 108.49ZM142.256 97.609C142.383 96.2926 142.443 94.8799 142.345 93.4689L122.393 94.8607C122.391 94.8304 122.396 94.8838 122.392 95.038C122.388 95.1894 122.376 95.4079 122.348 95.7019L142.256 97.609ZM198.404 103.111L208.401 102.857L207.946 84.9739L192.951 94.7286L198.404 103.111ZM198.634 112.157L205.465 119.46L208.745 116.392L208.631 111.903L198.634 112.157ZM180.05 110.165L189.813 107.997L183.942 81.5615L171.222 105.468L180.05 110.165ZM154.995 102.771L145.053 101.694L145.05 101.728L145.046 101.762L154.995 102.771ZM156.02 93.3168L165.961 94.3942L165.962 94.386L165.963 94.3777L156.02 93.3168ZM161.049 81.4981L168.352 88.3299L168.356 88.3251L161.049 81.4981ZM183.015 79.0837L175.524 85.7092L190.774 102.949L192.969 80.0373L183.015 79.0837ZM183.247 76.6617L182.551 66.6859L174.1 67.2755L173.292 75.7081L183.247 76.6617ZM195.377 75.8154L205.321 76.8764L206.587 65.0091L194.681 65.8397L195.377 75.8154ZM192.662 101.266L182.718 100.205L182.712 100.259L182.707 100.313L192.662 101.266ZM168.759 100.047L178.648 101.531L178.683 101.299L178.707 101.065L168.759 100.047ZM170.114 104.523L163.312 111.854L163.43 111.963L163.552 112.069L170.114 104.523ZM178.98 102.862L186.763 109.14L188.608 106.853L188.922 103.931L178.98 102.862ZM180.439 89.2877L190.381 90.3563L190.707 87.3284L189.289 84.6331L180.439 89.2877ZM169.379 93.9888L159.433 92.9481L159.432 92.9594L159.431 92.9707L169.379 93.9888ZM182.673 102.925C182.829 105.155 183.637 108.62 186.714 111.295C189.791 113.971 193.335 114.291 195.564 114.135L194.173 94.1838C195.019 94.1248 197.501 94.171 199.838 96.2034C202.175 98.2358 202.565 100.687 202.624 101.533L182.673 102.925ZM195.564 114.135C198.185 113.953 201.136 113.263 203.857 111.493L192.951 94.7286C193.831 94.1564 194.425 94.1662 194.173 94.1838L195.564 114.135ZM188.407 103.365L188.637 112.411L208.631 111.903L208.401 102.857L188.407 103.365ZM191.803 104.853C191.016 105.59 190.362 105.837 189.536 105.895L190.928 125.846C196.487 125.459 201.434 123.23 205.465 119.46L191.803 104.853ZM189.536 105.895C188.655 105.956 188.135 105.91 187.898 105.872C187.67 105.835 187.828 105.826 188.186 106.027C188.582 106.249 189.023 106.616 189.374 107.112C189.709 107.585 189.802 107.947 189.813 107.997L170.288 112.333C171.298 116.881 173.941 120.971 178.409 123.474C182.465 125.747 186.981 126.122 190.928 125.846L189.536 105.895ZM171.222 105.468C170.533 106.763 169.908 107.264 168.068 107.392L169.46 127.344C177.943 126.752 184.841 122.451 188.879 114.862L171.222 105.468ZM168.068 107.392C166.569 107.497 165.611 107.398 165.069 107.283C164.555 107.174 164.535 107.078 164.728 107.222C164.818 107.289 164.912 107.378 164.992 107.478C165.071 107.575 165.103 107.641 165.102 107.64C165.096 107.625 164.932 107.264 164.867 106.333L144.915 107.725C145.314 113.44 147.463 119.298 152.776 123.258C157.783 126.99 163.898 127.732 169.46 127.344L168.068 107.392ZM164.867 106.333C164.825 105.734 164.831 104.897 164.944 103.78L145.046 101.762C144.843 103.768 144.779 105.769 144.915 107.725L164.867 106.333ZM164.937 103.848L165.961 94.3942L146.078 92.2394L145.053 101.694L164.937 103.848ZM165.963 94.3777C166.292 91.2991 167.247 89.5109 168.352 88.3299L153.747 74.6664C149.18 79.5481 146.782 85.6391 146.076 92.2559L165.963 94.3777ZM168.356 88.3251C169.24 87.3798 170.609 86.5251 173.416 86.3293L172.024 66.3778C165.041 66.8649 158.63 69.4399 153.742 74.6712L168.356 88.3251ZM173.416 86.3293C175.195 86.2052 176.116 86.357 176.441 86.4431C176.689 86.5088 176.144 86.41 175.524 85.7092L190.505 72.4582C185.427 66.7177 177.911 65.9671 172.024 66.3778L173.416 86.3293ZM192.969 80.0373L193.201 77.6152L173.292 75.7081L173.06 78.1301L192.969 80.0373ZM183.943 86.6374L196.073 85.7912L194.681 65.8397L182.551 66.6859L183.943 86.6374ZM185.434 74.7545L182.718 100.205L202.605 102.327L205.321 76.8764L185.434 74.7545ZM182.707 100.313C182.625 101.176 182.612 102.049 182.673 102.925L202.624 101.533C202.641 101.771 202.637 102.002 202.616 102.22L182.707 100.313ZM158.87 98.5619C158.638 100.108 158.684 101.617 158.763 102.749L178.714 101.357C178.707 101.247 178.702 101.163 178.7 101.103C178.698 101.042 178.699 101.014 178.699 101.015C178.699 101.016 178.698 101.026 178.698 101.045C178.697 101.064 178.696 101.095 178.693 101.135C178.687 101.212 178.676 101.348 178.648 101.531L158.87 98.5619ZM158.763 102.749C159.056 106.948 161.292 109.979 163.312 111.854L176.915 97.1926C177.221 97.4761 178.54 98.8599 178.714 101.357L158.763 102.749ZM163.552 112.069C167.373 115.392 172.009 115.618 174.883 115.418L173.492 95.4661C173.223 95.4849 173.442 95.4349 173.972 95.5546C174.541 95.6828 175.597 96.0397 176.676 96.9772L163.552 112.069ZM174.883 115.418C179.758 115.078 183.859 112.742 186.763 109.14L171.196 96.5841C171.289 96.4682 171.572 96.1663 172.082 95.8916C172.605 95.6098 173.118 95.4922 173.492 95.4661L174.883 115.418ZM188.922 103.931L190.381 90.3563L170.496 88.2192L169.037 101.794L188.922 103.931ZM189.289 84.6331C185.901 78.1898 179.326 77.3361 175.453 77.6063L176.845 97.5578C177.027 97.5452 176.301 97.6394 175.162 97.1866C173.796 96.6432 172.425 95.5344 171.588 93.9423L189.289 84.6331ZM175.453 77.6063C171.843 77.8582 167.797 79.0251 164.511 82.1345C161.196 85.2713 159.817 89.2838 159.433 92.9481L179.325 95.0294C179.358 94.7084 179.316 95.6604 178.257 96.6616C177.228 97.6355 176.359 97.5918 176.845 97.5578L175.453 77.6063ZM159.431 92.9707L158.811 99.0286L178.707 101.065L179.327 95.0068L159.431 92.9707ZM248.008 99.6505L258.005 99.3963L257.55 81.5135L242.555 91.2681L248.008 99.6505ZM248.239 108.696L255.144 115.929L258.348 112.87L258.235 108.442L248.239 108.696ZM228.508 100.61L218.566 99.5386L218.563 99.5624L218.561 99.5863L228.508 100.61ZM229.579 90.6713L239.521 91.7427L239.528 91.6838L239.533 91.6249L229.579 90.6713ZM219.245 87.3825L211.102 81.578L209.578 83.7161L209.301 86.327L219.245 87.3825ZM216.535 112.913L217.231 122.889L225.594 122.305L226.479 113.968L216.535 112.913ZM202.968 113.859L193.023 112.81L191.773 124.665L203.664 123.835L202.968 113.859ZM209.437 52.5406L208.741 42.5648L200.372 43.1487L199.492 51.4915L209.437 52.5406ZM223.004 51.5942L232.948 52.6425L234.198 40.7889L222.308 41.6184L223.004 51.5942ZM220.253 77.6889L210.308 76.6405L206.767 110.233L228.024 83.982L220.253 77.6889ZM241.643 75.074L233.728 81.1866L233.798 81.2765L233.869 81.3648L241.643 75.074ZM243.591 85.7643L233.665 84.5519L233.658 84.6111L233.651 84.6703L243.591 85.7643ZM242.266 97.8057L232.326 96.7117L232.318 96.7819L232.312 96.8521L242.266 97.8057ZM245.488 110.653C248.205 110.463 250.956 109.663 253.461 108.033L242.555 91.2681C242.863 91.0679 243.179 90.9235 243.474 90.8295C243.763 90.7372 243.982 90.709 244.096 90.7011L245.488 110.653ZM238.012 99.9048L238.242 108.951L258.235 108.442L258.005 99.3963L238.012 99.9048ZM241.333 101.464C240.631 102.134 240.041 102.372 239.221 102.429L240.612 122.38C246.176 121.992 251.135 119.758 255.144 115.929L241.333 101.464ZM239.221 102.429C238.076 102.509 237.424 102.43 237.143 102.372C236.887 102.32 237.098 102.319 237.493 102.606C237.686 102.746 237.878 102.923 238.048 103.129C238.217 103.334 238.329 103.523 238.397 103.664C238.527 103.936 238.442 103.913 238.404 103.368L218.452 104.76C218.807 109.838 220.786 115.192 225.742 118.79C230.342 122.13 235.844 122.713 240.612 122.38L239.221 102.429ZM238.404 103.368C238.376 102.962 238.377 102.393 238.455 101.634L218.561 99.5863C218.384 101.304 218.332 103.037 218.452 104.76L238.404 103.368ZM238.45 101.681L239.521 91.7427L219.636 89.6L218.566 99.5386L238.45 101.681ZM239.533 91.6249C239.678 90.1153 239.699 88.6004 239.594 87.0857L219.642 88.4775C219.67 88.8782 219.666 89.2897 219.624 89.7178L239.533 91.6249ZM239.594 87.0857C239.386 84.1112 238.286 80.1462 234.73 77.2383C231.295 74.4293 227.334 74.0673 224.585 74.2591L225.977 94.2106C225.941 94.2131 224.059 94.3476 222.07 92.7209C219.959 90.9951 219.672 88.8982 219.642 88.4775L239.594 87.0857ZM224.585 74.2591C219.397 74.621 214.448 76.8847 211.102 81.578L227.388 93.187C227.188 93.4675 226.843 93.797 226.401 94.0276C225.993 94.2403 225.781 94.2242 225.977 94.2106L224.585 74.2591ZM209.301 86.327L206.591 111.857L226.479 113.968L229.189 88.438L209.301 86.327ZM215.839 102.937L202.272 103.884L203.664 123.835L217.231 122.889L215.839 102.937ZM212.913 114.908L219.381 53.5897L199.492 51.4915L193.023 112.81L212.913 114.908ZM210.132 62.5164L223.699 61.5699L222.308 41.6184L208.741 42.5648L210.132 62.5164ZM213.059 50.5458L210.308 76.6405L230.198 78.7372L232.948 52.6425L213.059 50.5458ZM228.024 83.982C228.929 82.8644 229.894 82.3091 231.634 82.1878L230.242 62.2362C223.149 62.731 216.991 65.827 212.481 71.3957L228.024 83.982ZM231.634 82.1878C232.616 82.1192 233.391 82.1208 233.983 82.1591C234.579 82.1977 234.92 82.2692 235.061 82.3071C235.327 82.3781 234.522 82.2147 233.728 81.1866L249.557 68.9614C244.495 62.4069 236.177 61.8222 230.242 62.2362L231.634 82.1878ZM233.869 81.3648C233.872 81.3678 233.857 81.35 233.835 81.3114C233.812 81.2723 233.787 81.2233 233.765 81.1678C233.717 81.0452 233.714 80.9729 233.716 81L253.667 79.6081C253.389 75.6156 251.95 71.9138 249.416 68.7831L233.869 81.3648ZM233.716 81C233.816 82.4377 233.78 83.6102 233.665 84.5519L253.518 86.9766C253.811 84.5751 253.842 82.1075 253.667 79.6081L233.716 81ZM233.651 84.6703L232.326 96.7117L252.206 98.8996L253.531 86.8582L233.651 84.6703ZM232.312 96.8521C232.239 97.6104 232.208 98.4669 232.272 99.385L252.223 97.9932C252.25 98.3793 252.231 98.6468 252.221 98.7592L232.312 96.8521ZM232.272 99.385C232.449 101.928 233.459 105.532 236.803 108.144C239.934 110.59 243.397 110.799 245.488 110.653L244.096 90.7011C244.592 90.6666 246.832 90.5994 249.115 92.383C251.611 94.3324 252.146 96.8864 252.223 97.9932L232.272 99.385ZM295.824 96.3149L305.82 96.0607L305.365 78.1779L290.371 87.9325L295.824 96.3149ZM296.054 105.361L302.884 112.664L306.165 109.596L306.05 105.107L296.054 105.361ZM277.47 103.369L287.232 101.201L281.361 74.7655L268.642 98.6723L277.47 103.369ZM252.415 95.975L242.473 94.8976L242.469 94.9317L242.466 94.9658L252.415 95.975ZM253.439 86.5208L263.381 87.5982L263.382 87.5899L263.383 87.5817L253.439 86.5208ZM258.469 74.7021L265.771 81.5338L265.776 81.5291L258.469 74.7021ZM280.434 72.2876L272.944 78.9132L288.194 96.1532L290.389 73.2412L280.434 72.2876ZM280.666 69.8656L279.97 59.8899L271.519 60.4794L270.712 68.9121L280.666 69.8656ZM292.797 69.0194L302.74 70.0803L304.006 58.2131L292.101 59.0436L292.797 69.0194ZM290.081 94.4701L280.138 93.4092L280.132 93.4628L280.127 93.5165L290.081 94.4701ZM266.178 93.2506L276.068 94.7353L276.103 94.5026L276.126 94.2686L266.178 93.2506ZM267.533 97.7271L260.732 105.058L260.85 105.167L260.971 105.273L267.533 97.7271ZM276.399 96.0661L284.183 102.344L286.028 100.057L286.342 97.1347L276.399 96.0661ZM277.858 82.4917L287.801 83.5602L288.126 80.5324L286.709 77.8371L277.858 82.4917ZM266.798 87.1927L256.853 86.1521L256.851 86.1634L256.85 86.1747L266.798 87.1927ZM280.092 96.1292C280.248 98.3586 281.057 101.824 284.134 104.499C287.211 107.175 290.754 107.495 292.984 107.339L291.592 87.3878C292.438 87.3287 294.92 87.3749 297.257 89.4073C299.595 91.4397 299.985 93.8913 300.044 94.7374L280.092 96.1292ZM292.984 107.339C295.604 107.156 298.556 106.467 301.277 104.697L290.371 87.9325C291.25 87.3604 291.845 87.3701 291.592 87.3878L292.984 107.339ZM285.827 96.5692L286.057 105.615L306.05 105.107L305.82 96.0607L285.827 96.5692ZM289.223 98.0574C288.435 98.7941 287.782 99.0412 286.956 99.0988L288.348 119.05C293.906 118.663 298.854 116.434 302.884 112.664L289.223 98.0574ZM286.956 99.0988C286.075 99.1603 285.555 99.1138 285.318 99.0756C285.09 99.0387 285.247 99.03 285.605 99.2307C286.001 99.4526 286.443 99.8203 286.793 100.316C287.129 100.789 287.221 101.151 287.232 101.201L267.708 105.537C268.718 110.084 271.361 114.175 275.829 116.678C279.884 118.951 284.401 119.326 288.348 119.05L286.956 99.0988ZM268.642 98.6723C267.953 99.9673 267.327 100.468 265.488 100.596L266.88 120.548C275.362 119.956 282.261 115.655 286.298 108.066L268.642 98.6723ZM265.488 100.596C263.989 100.701 263.031 100.602 262.488 100.487C261.975 100.378 261.954 100.282 262.147 100.426C262.238 100.493 262.332 100.582 262.412 100.682C262.491 100.779 262.522 100.845 262.522 100.844C262.515 100.829 262.351 100.468 262.286 99.5366L242.335 100.928C242.734 106.644 244.883 112.502 250.196 116.462C255.203 120.194 261.317 120.936 266.88 120.548L265.488 100.596ZM262.286 99.5366C262.245 98.938 262.25 98.1007 262.364 96.9842L242.466 94.9658C242.262 96.9723 242.199 98.9733 242.335 100.928L262.286 99.5366ZM262.356 97.0524L263.381 87.5982L243.497 85.4434L242.473 94.8976L262.356 97.0524ZM263.383 87.5817C263.711 84.5031 264.667 82.7149 265.771 81.5338L251.166 67.8704C246.599 72.752 244.202 78.843 243.496 85.4599L263.383 87.5817ZM265.776 81.5291C266.659 80.5837 268.029 79.729 270.835 79.5332L269.443 59.5817C262.46 60.0689 256.049 62.6439 251.162 67.8751L265.776 81.5291ZM270.835 79.5332C272.614 79.4091 273.536 79.5609 273.861 79.647C274.108 79.7127 273.564 79.6139 272.944 78.9132L287.924 65.6621C282.847 59.9217 275.33 59.171 269.443 59.5817L270.835 79.5332ZM290.389 73.2412L290.621 70.8192L270.712 68.9121L270.48 71.3341L290.389 73.2412ZM281.362 79.8414L293.493 78.9952L292.101 59.0436L279.97 59.8899L281.362 79.8414ZM282.853 67.9585L280.138 93.4092L300.025 95.531L302.74 70.0803L282.853 67.9585ZM280.127 93.5165C280.044 94.3802 280.031 95.253 280.092 96.1292L300.044 94.7374C300.061 94.9752 300.057 95.2058 300.036 95.4236L280.127 93.5165ZM256.289 91.7658C256.057 93.3124 256.103 94.8214 256.182 95.9528L276.134 94.5609C276.126 94.4509 276.122 94.367 276.12 94.3069C276.118 94.2463 276.118 94.2181 276.118 94.2186C276.118 94.2195 276.118 94.2299 276.117 94.2492C276.116 94.2683 276.115 94.2985 276.112 94.3388C276.107 94.4155 276.095 94.5517 276.068 94.7353L256.289 91.7658ZM256.182 95.9528C256.475 100.152 258.711 103.183 260.732 105.058L274.335 90.3966C274.64 90.6801 275.96 92.0639 276.134 94.5609L256.182 95.9528ZM260.971 105.273C264.792 108.596 269.428 108.822 272.303 108.622L270.911 88.6701C270.643 88.6888 270.861 88.6388 271.392 88.7586C271.96 88.8867 273.017 89.2436 274.095 90.1811L260.971 105.273ZM272.303 108.622C277.178 108.282 281.278 105.946 284.183 102.344L268.615 89.788C268.709 89.6722 268.991 89.3702 269.501 89.0955C270.025 88.8138 270.537 88.6962 270.911 88.6701L272.303 108.622ZM286.342 97.1347L287.801 83.5602L267.915 81.4231L266.456 94.9975L286.342 97.1347ZM286.709 77.8371C283.32 71.3937 276.746 70.5401 272.873 70.8103L274.265 90.7618C274.446 90.7491 273.721 90.8433 272.582 90.3905C271.216 89.8471 269.845 88.7384 269.007 87.1463L286.709 77.8371ZM272.873 70.8103C269.263 71.0621 265.217 72.2291 261.931 75.3385C258.616 78.4753 257.236 82.4877 256.853 86.1521L276.744 88.2334C276.778 87.9124 276.735 88.8644 275.677 89.8656C274.648 90.8395 273.778 90.7957 274.265 90.7618L272.873 70.8103ZM256.85 86.1747L256.23 92.2325L276.126 94.2686L276.746 88.2108L256.85 86.1747ZM337.511 79.3728L327.926 76.5217L327.886 76.6543L327.85 76.788L337.511 79.3728ZM336.017 83.2462L344.291 88.8622L344.384 88.7247L344.473 88.5843L336.017 83.2462ZM335.217 84.4247L335.912 94.4004L340.761 94.0622L343.491 90.0407L335.217 84.4247ZM323.166 85.2653L315.9 78.3951L298.285 97.0254L323.862 95.2411L323.166 85.2653ZM323.725 78.3297L316.841 85.5835L317.157 85.8828L317.497 86.1536L323.725 78.3297ZM316.664 80.5864L308.215 75.2376L306.967 77.2098L306.72 79.5309L316.664 80.5864ZM313.955 106.117L314.651 116.093L323.014 115.509L323.899 107.172L313.955 106.117ZM300.388 107.063L290.443 106.013L289.19 117.869L301.084 117.039L300.388 107.063ZM304.493 68.2034L303.797 58.2277L295.43 58.8114L294.549 67.1528L304.493 68.2034ZM317.103 67.3238L327.045 68.3975L328.328 56.5164L316.407 57.348L317.103 67.3238ZM316.518 72.7376L306.576 71.6639L325.077 77.9095L316.518 72.7376ZM334.994 67.439L328.553 75.0882L328.612 75.1377L328.671 75.1863L334.994 67.439ZM328.125 74.7347C328.167 75.3411 328.105 75.9179 327.926 76.5217L347.096 82.2239C347.955 79.3336 348.287 76.3543 348.077 73.3429L328.125 74.7347ZM327.85 76.788C327.683 77.4129 327.547 77.8182 327.457 78.0498C327.414 78.1609 327.394 78.202 327.401 78.1871C327.407 78.1747 327.457 78.0724 327.56 77.908L344.473 88.5843C345.811 86.4634 346.62 84.0159 347.171 81.9576L327.85 76.788ZM327.742 77.6301L326.943 78.8087L343.491 90.0407L344.291 88.8622L327.742 77.6301ZM334.521 74.4489L322.47 75.2896L323.862 95.2411L335.912 94.4004L334.521 74.4489ZM330.432 92.1356C333.6 88.7849 335.14 84.4775 334.819 79.8813L314.868 81.2731C314.844 80.927 314.876 80.3731 315.104 79.7364C315.332 79.0994 315.659 78.6495 315.9 78.3951L330.432 92.1356ZM334.819 79.8813C334.581 76.4563 333.07 72.9874 329.952 70.5057L317.497 86.1536C316.737 85.5491 316.051 84.7367 315.562 83.7544C315.084 82.7945 314.913 81.9122 314.868 81.2731L334.819 79.8813ZM330.608 71.0758C327.493 68.1199 323.66 67.3475 320.488 67.5688L321.88 87.5203C321.424 87.5521 320.634 87.5389 319.665 87.2395C318.65 86.926 317.666 86.3665 316.841 85.5835L330.608 71.0758ZM320.488 67.5688C314.739 67.9699 310.663 71.3716 308.215 75.2376L325.114 85.9353C325.147 85.8823 324.917 86.2675 324.281 86.6955C323.583 87.1657 322.726 87.4613 321.88 87.5203L320.488 67.5688ZM306.72 79.5309L304.01 105.061L323.899 107.172L326.609 81.6419L306.72 79.5309ZM313.259 96.1412L299.692 97.0876L301.084 117.039L314.651 116.093L313.259 96.1412ZM310.332 108.114L314.438 69.2541L294.549 67.1528L290.443 106.013L310.332 108.114ZM305.189 78.1792L317.799 77.2996L316.407 57.348L303.797 58.2277L305.189 78.1792ZM307.16 66.2501L306.576 71.6639L326.46 73.8113L327.045 68.3975L307.16 66.2501ZM325.077 77.9095C326.549 75.4722 327.453 75.5034 327.776 75.4808L326.384 55.5293C318.089 56.108 311.95 60.9608 307.959 67.5658L325.077 77.9095ZM327.776 75.4808C328.745 75.4132 329.196 75.5016 329.278 75.5217C329.308 75.529 329.234 75.5137 329.09 75.4434C328.942 75.3712 328.752 75.2562 328.553 75.0882L341.435 59.7898C336.879 55.9531 331.251 55.1898 326.384 55.5293L327.776 75.4808ZM328.671 75.1863C328.573 75.1059 328.461 74.9962 328.355 74.86C328.249 74.724 328.174 74.5951 328.126 74.4932C328.029 74.2872 328.095 74.3101 328.125 74.7347L348.077 73.3429C347.724 68.2906 345.735 63.2977 341.317 59.6917L328.671 75.1863ZM384.826 90.1061L394.823 89.8518L394.368 71.969L379.373 81.7236L384.826 90.1061ZM385.056 99.152L391.887 106.455L395.167 103.388L395.053 98.8977L385.056 99.152ZM366.472 97.1604L376.235 94.9924L370.364 68.5566L357.644 92.4634L366.472 97.1604ZM341.417 89.7661L331.475 88.6887L331.472 88.7228L331.468 88.757L341.417 89.7661ZM342.442 80.3119L352.383 81.3893L352.384 81.3811L352.385 81.3728L342.442 80.3119ZM347.471 68.4932L354.774 75.325L354.778 75.3202L347.471 68.4932ZM369.437 66.0788L361.946 72.7043L377.196 89.9443L379.391 67.0323L369.437 66.0788ZM369.669 63.6568L368.973 53.681L360.522 54.2705L359.714 62.7032L369.669 63.6568ZM381.799 62.8105L391.743 63.8714L393.009 52.0042L381.103 52.8348L381.799 62.8105ZM379.084 88.2612L369.14 87.2003L369.134 87.2539L369.129 87.3077L379.084 88.2612ZM355.181 87.0417L365.07 88.5264L365.105 88.2937L365.129 88.0597L355.181 87.0417ZM356.536 91.5183L349.734 98.8488L349.852 98.9585L349.974 99.0643L356.536 91.5183ZM365.402 89.8572L373.185 96.1353L375.03 93.8478L375.344 90.9258L365.402 89.8572ZM366.86 76.2828L376.803 77.3514L377.129 74.3235L375.711 71.6282L366.86 76.2828ZM355.801 80.9839L345.855 79.9432L345.854 79.9545L345.853 79.9658L355.801 80.9839ZM369.095 89.9204C369.25 92.1497 370.059 95.6147 373.136 98.2905C376.213 100.966 379.757 101.286 381.986 101.13L380.594 81.1789C381.441 81.1199 383.923 81.1661 386.26 83.1985C388.597 85.2309 388.987 87.6825 389.046 88.5285L369.095 89.9204ZM381.986 101.13C384.607 100.948 387.558 100.258 390.279 98.4885L379.373 81.7236C380.253 81.1515 380.847 81.1613 380.594 81.1789L381.986 101.13ZM374.829 90.3603L375.059 99.4062L395.053 98.8977L394.823 89.8518L374.829 90.3603ZM378.225 91.8485C377.438 92.5852 376.784 92.8323 375.958 92.8899L377.35 112.841C382.909 112.454 387.856 110.225 391.887 106.455L378.225 91.8485ZM375.958 92.8899C375.077 92.9514 374.557 92.905 374.32 92.8667C374.092 92.8299 374.25 92.8211 374.608 93.0218C375.004 93.2437 375.445 93.6114 375.796 94.107C376.131 94.5803 376.223 94.9426 376.235 94.9924L356.71 99.3284C357.72 103.876 360.363 107.966 364.831 110.469C368.886 112.742 373.403 113.117 377.35 112.841L375.958 92.8899ZM357.644 92.4634C356.955 93.7584 356.33 94.2592 354.49 94.3875L355.882 114.339C364.365 113.747 371.263 109.446 375.301 101.857L357.644 92.4634ZM354.49 94.3875C352.991 94.4921 352.033 94.3934 351.49 94.278C350.977 94.1689 350.957 94.073 351.15 94.2168C351.24 94.2842 351.334 94.3731 351.414 94.4727C351.493 94.5704 351.525 94.6358 351.524 94.6347C351.517 94.6204 351.354 94.259 351.289 93.3278L331.337 94.7196C331.736 100.435 333.885 106.293 339.198 110.253C344.205 113.985 350.32 114.727 355.882 114.339L354.49 94.3875ZM351.289 93.3278C351.247 92.7291 351.253 91.8918 351.366 90.7753L331.468 88.757C331.265 90.7634 331.201 92.7645 331.337 94.7196L351.289 93.3278ZM351.359 90.8435L352.383 81.3893L332.5 79.2345L331.475 88.6887L351.359 90.8435ZM352.385 81.3728C352.714 78.2942 353.669 76.506 354.774 75.3249L340.169 61.6615C335.602 66.5432 333.204 72.6341 332.498 79.251L352.385 81.3728ZM354.778 75.3202C355.662 74.3749 357.031 73.5201 359.838 73.3244L358.446 53.3728C351.463 53.86 345.052 56.435 340.164 61.6662L354.778 75.3202ZM359.838 73.3244C361.617 73.2002 362.538 73.3521 362.863 73.4381C363.111 73.5038 362.566 73.4051 361.946 72.7043L376.927 59.4533C371.849 53.7128 364.333 52.9622 358.446 53.3728L359.838 73.3244ZM379.391 67.0323L379.623 64.6103L359.714 62.7032L359.482 65.1252L379.391 67.0323ZM370.365 73.6325L382.495 72.7863L381.103 52.8348L368.973 53.681L370.365 73.6325ZM371.856 61.7496L369.14 87.2003L389.027 89.3221L391.743 63.8714L371.856 61.7496ZM369.129 87.3077C369.047 88.1713 369.034 89.0441 369.095 89.9204L389.046 88.5285C389.063 88.7663 389.059 88.997 389.038 89.2147L369.129 87.3077ZM345.292 85.557C345.059 87.1035 345.106 88.6126 345.185 89.7439L365.136 88.3521C365.129 88.2421 365.124 88.1582 365.122 88.0981C365.12 88.0374 365.12 88.0092 365.12 88.0098C365.12 88.0106 365.12 88.0211 365.12 88.0403C365.119 88.0595 365.118 88.0897 365.115 88.13C365.109 88.2066 365.098 88.3428 365.07 88.5264L345.292 85.557ZM345.185 89.7439C345.478 93.9434 347.714 96.9741 349.734 98.8488L363.337 84.1877C363.643 84.4712 364.962 85.855 365.136 88.3521L345.185 89.7439ZM349.974 99.0643C353.795 102.387 358.431 102.613 361.305 102.413L359.914 82.4612C359.645 82.4799 359.863 82.43 360.394 82.5497C360.962 82.6778 362.019 83.0347 363.098 83.9722L349.974 99.0643ZM361.305 102.413C366.18 102.073 370.281 99.7367 373.185 96.1353L357.618 83.5792C357.711 83.4633 357.994 83.1614 358.504 82.8866C359.027 82.6049 359.54 82.4873 359.914 82.4612L361.305 102.413ZM375.344 90.9258L376.803 77.3514L356.918 75.2142L355.459 88.7887L375.344 90.9258ZM375.711 71.6282C372.323 65.1848 365.748 64.3312 361.875 64.6014L363.267 84.5529C363.449 84.5402 362.723 84.6345 361.584 84.1816C360.218 83.6382 358.847 82.5295 358.01 80.9374L375.711 71.6282ZM361.875 64.6014C358.265 64.8532 354.219 66.0202 350.933 69.1296C347.618 72.2664 346.238 76.2789 345.855 79.9432L365.746 82.0245C365.78 81.7035 365.737 82.6555 364.679 83.6567C363.65 84.6306 362.781 84.5868 363.267 84.5529L361.875 64.6014ZM345.853 79.9658L345.233 86.0236L365.129 88.0597L365.749 82.0019L345.853 79.9658ZM437.851 97.4738L427.856 97.7883L428.183 108.173L438.547 107.45L437.851 97.4738ZM437.456 84.9109L447.451 84.5964L447.124 74.2121L436.76 74.9351L437.456 84.9109ZM424.128 85.8406L423.432 75.8649L416.095 76.3767L414.398 83.5329L424.128 85.8406ZM421.092 98.643L421.788 108.619L429.125 108.107L430.822 100.951L421.092 98.643ZM405.849 99.7063L396.22 97.0082L392.392 110.669L406.545 109.682L405.849 99.7063ZM422.35 40.8152L421.655 30.8394L414.623 31.3299L412.721 38.117L422.35 40.8152ZM448.686 38.978L458.658 38.2266L457.911 28.3101L447.991 29.0022L448.686 38.978ZM453.014 96.416L453.71 106.392L463.741 105.692L462.986 95.6647L453.014 96.416ZM431.545 54.2078L430.849 44.232L423.504 44.7444L421.812 51.9096L431.545 54.2078ZM426.654 74.9183L416.922 72.6202L413.8 85.8393L427.35 84.8941L426.654 74.9183ZM437.109 74.189L437.805 84.1648L447.358 83.4984L447.105 73.9254L437.109 74.189ZM436.573 53.8571L446.569 53.5934L446.294 43.1546L435.877 43.8813L436.573 53.8571ZM447.846 97.1594L447.451 84.5964L427.461 85.2253L427.856 97.7883L447.846 97.1594ZM436.76 74.9351L423.432 75.8649L424.824 95.8164L438.152 94.8866L436.76 74.9351ZM414.398 83.5329L411.362 96.3352L430.822 100.951L433.858 88.1484L414.398 83.5329ZM420.396 88.6672L405.153 89.7306L406.545 109.682L421.788 108.619L420.396 88.6672ZM415.478 102.404L431.98 43.5133L412.721 38.117L396.22 97.0082L415.478 102.404ZM423.046 50.7909L449.382 48.9537L447.991 29.0022L421.655 30.8394L423.046 50.7909ZM438.715 39.7293L443.042 97.1674L462.986 95.6647L458.658 38.2266L438.715 39.7293ZM452.318 86.4403L437.155 87.4981L438.547 107.45L453.71 106.392L452.318 86.4403ZM421.812 51.9096L416.922 72.6202L436.387 77.2165L441.277 56.506L421.812 51.9096ZM427.35 84.8941L437.805 84.1648L436.413 64.2133L425.958 64.9426L427.35 84.8941ZM447.105 73.9254L446.569 53.5934L426.576 54.1207L427.112 74.4527L447.105 73.9254ZM435.877 43.8813L430.849 44.232L432.241 64.1835L437.268 63.8328L435.877 43.8813ZM474.851 77.6509L464.907 76.6004L464.901 76.6488L464.897 76.6973L474.851 77.6509ZM485.042 81.1902L492.803 87.497L494.679 85.1884L494.988 82.2297L485.042 81.1902ZM487.735 55.4203L487.039 45.4446L478.662 46.029L477.79 54.3809L487.735 55.4203ZM501.302 54.4739L511.247 55.5279L512.504 43.6682L500.607 44.4981L501.302 54.4739ZM497.046 94.6274L487.102 93.5734L487.1 93.5919L487.098 93.6104L497.046 94.6274ZM490.105 111.231L482.777 104.426L482.756 104.449L482.734 104.473L490.105 111.231ZM464.374 115.993L458.486 124.076L458.531 124.108L458.576 124.14L464.374 115.993ZM467.862 95.8614L473.76 103.937L492.807 90.0258L469.565 86.0076L467.862 95.8614ZM461.798 91.7133L470.988 87.7705L470.942 87.6642L470.894 87.559L461.798 91.7133ZM460.839 82.5579L450.895 81.497L450.887 81.5767L450.879 81.6565L460.839 82.5579ZM463.554 57.1072L462.858 47.1315L454.5 47.7146L453.611 56.0463L463.554 57.1072ZM477.121 56.1608L487.066 57.2112L488.318 45.3554L476.425 46.185L477.121 56.1608ZM483.398 96.7023L473.449 95.6931L473.447 95.7073L473.446 95.7214L483.398 96.7023ZM483.873 92.0179L493.822 93.027L495.754 73.9785L479.017 83.2761L483.873 92.0179ZM474.565 105.739L467.682 112.993L467.694 113.005L467.707 113.017L474.565 105.739ZM464.897 76.6973C464.752 78.2068 464.731 79.7218 464.836 81.2365L484.788 79.8447C484.76 79.444 484.765 79.0325 484.806 78.6044L464.897 76.6973ZM464.836 81.2365C465.055 84.3754 466.278 88.399 469.983 91.2568C473.45 93.9311 477.381 94.235 480.085 94.0464L478.693 74.0949C478.7 74.0944 478.786 74.0885 478.941 74.0973C479.096 74.1061 479.34 74.1308 479.654 74.2003C480.296 74.3428 481.236 74.6784 482.197 75.4201C484.377 77.1012 484.747 79.2596 484.788 79.8447L464.836 81.2365ZM480.085 94.0464C485.073 93.6984 489.559 91.4889 492.803 87.497L477.282 74.8834C477.385 74.7564 477.631 74.5152 478.018 74.3179C478.398 74.1247 478.671 74.0964 478.693 74.0949L480.085 94.0464ZM494.988 82.2297L497.681 56.4598L477.79 54.3809L475.096 80.1508L494.988 82.2297ZM488.431 65.3961L501.998 64.4497L500.607 44.4981L487.039 45.4446L488.431 65.3961ZM491.358 53.4199L487.102 93.5734L506.991 95.6814L511.247 55.5279L491.358 53.4199ZM487.098 93.6104C486.577 98.7118 484.96 102.076 482.777 104.426L497.433 118.036C503.107 111.925 506.118 104.22 506.995 95.6445L487.098 93.6104ZM482.734 104.473C480.467 106.945 478.179 107.973 475.536 108.157L476.928 128.109C485.032 127.543 491.993 123.969 497.476 117.989L482.734 104.473ZM475.536 108.157C473.414 108.305 471.951 108.207 471.013 108.038C470.078 107.869 469.941 107.681 470.172 107.845L458.576 124.14C463.952 127.966 470.777 128.538 476.928 128.109L475.536 108.157ZM470.262 107.91C470.183 107.853 470.172 107.833 470.198 107.862C470.21 107.876 470.227 107.896 470.246 107.924C470.266 107.951 470.284 107.981 470.3 108.01C470.316 108.04 470.327 108.065 470.334 108.082C470.341 108.1 470.342 108.106 470.34 108.096C470.335 108.08 470.311 107.988 470.298 107.801L450.347 109.193C450.765 115.182 453.505 120.447 458.486 124.076L470.262 107.91ZM470.298 107.801C470.294 107.744 470.258 107.574 470.558 107.07C470.931 106.446 471.818 105.355 473.76 103.937L461.964 87.7859C455.225 92.7076 449.693 99.8257 450.347 109.193L470.298 107.801ZM469.565 86.0076C469.057 85.9198 469.224 85.8599 469.679 86.171C469.914 86.3319 470.181 86.5625 470.433 86.8687C470.686 87.1753 470.868 87.4898 470.988 87.7705L452.608 95.6562C455.283 101.891 460.824 104.793 466.158 105.715L469.565 86.0076ZM470.894 87.559C470.902 87.5749 470.797 87.3579 470.755 86.758L450.804 88.1498C450.984 90.7422 451.559 93.3648 452.702 95.8677L470.894 87.559ZM470.755 86.758C470.683 85.718 470.693 84.6207 470.798 83.4593L450.879 81.6565C450.683 83.8309 450.653 85.9976 450.804 88.1498L470.755 86.758ZM470.782 83.6188L473.498 58.1682L453.611 56.0463L450.895 81.497L470.782 83.6188ZM464.25 67.083L477.817 66.1366L476.425 46.185L462.858 47.1315L464.25 67.083ZM467.177 55.1103L464.907 76.6004L484.796 78.7013L487.066 57.2112L467.177 55.1103ZM477.967 116.568C483.32 116.195 487.416 113.212 489.898 109.205C492.082 105.68 492.972 101.515 493.35 97.6832L473.446 95.7214C473.331 96.8869 473.171 97.6997 473.024 98.2283C472.875 98.7691 472.784 98.8524 472.895 98.6731C473.024 98.4651 473.414 97.9273 474.19 97.4284C475.002 96.9058 475.866 96.6663 476.575 96.6169L477.967 116.568ZM493.347 97.7114L493.822 93.027L473.924 91.0087L473.449 95.6931L493.347 97.7114ZM479.017 83.2761C475.002 85.5063 471.319 88.0428 468.568 91.0232C465.817 94.0036 463.147 98.4032 463.533 103.942L483.485 102.55C483.626 104.578 482.561 105.35 483.265 104.588C483.969 103.826 485.59 102.504 488.729 100.76L479.017 83.2761ZM463.533 103.942C463.74 106.904 464.845 110.3 467.682 112.993L481.449 98.485C482.17 99.1695 482.698 99.9673 483.037 100.766C483.363 101.536 483.459 102.175 483.485 102.55L463.533 103.942ZM467.707 113.017C470.804 115.935 474.632 116.801 477.967 116.568L476.575 96.6169C477.042 96.5843 477.822 96.6032 478.766 96.901C479.748 97.211 480.667 97.7488 481.423 98.4612L467.707 113.017ZM548.647 78.6778L558.643 78.4236L558.189 60.5408L543.194 70.2954L548.647 78.6778ZM548.877 87.7237L555.707 95.0272L558.988 91.9593L558.873 87.4695L548.877 87.7237ZM530.293 85.7322L540.055 83.5642L534.184 57.1284L521.465 81.0352L530.293 85.7322ZM505.238 78.3379L495.296 77.2605L495.292 77.2946L495.289 77.3287L505.238 78.3379ZM506.262 68.8837L516.204 69.9611L516.205 69.9528L516.206 69.9446L506.262 68.8837ZM511.292 57.065L518.595 63.8967L518.599 63.892L511.292 57.065ZM533.257 54.6505L525.767 61.276L541.017 78.516L543.212 55.6041L533.257 54.6505ZM533.489 52.2285L532.793 42.2528L524.343 42.8423L523.535 51.275L533.489 52.2285ZM545.62 51.3823L555.563 52.4432L556.829 40.576L544.924 41.4065L545.62 51.3823ZM542.904 76.833L532.961 75.772L532.955 75.8257L532.95 75.8794L542.904 76.833ZM519.001 75.6134L528.891 77.0982L528.926 76.8655L528.95 76.6315L519.001 75.6134ZM520.356 80.09L513.555 87.4205L513.673 87.5302L513.794 87.636L520.356 80.09ZM529.222 78.429L537.006 84.7071L538.851 82.4196L539.165 79.4976L529.222 78.429ZM530.681 64.8546L540.624 65.9231L540.949 62.8953L539.532 60.2L530.681 64.8546ZM519.621 69.5556L509.676 68.515L509.675 68.5263L509.673 68.5376L519.621 69.5556ZM532.916 78.4921C533.071 80.7215 533.88 84.1864 536.957 86.8622C540.034 89.5381 543.578 89.8577 545.807 89.7022L544.415 69.7507C545.261 69.6916 547.743 69.7378 550.08 71.7702C552.418 73.8026 552.808 76.2542 552.867 77.1003L532.916 78.4921ZM545.807 89.7022C548.427 89.5194 551.379 88.8301 554.1 87.0602L543.194 70.2954C544.073 69.7233 544.668 69.733 544.415 69.7507L545.807 89.7022ZM538.65 78.9321L538.88 87.978L558.873 87.4695L558.643 78.4236L538.65 78.9321ZM542.046 80.4203C541.258 81.1569 540.605 81.4041 539.779 81.4617L541.171 101.413C546.729 101.025 551.677 98.7968 555.707 95.0272L542.046 80.4203ZM539.779 81.4617C538.898 81.5232 538.378 81.4767 538.141 81.4385C537.913 81.4016 538.07 81.3929 538.428 81.5936C538.824 81.8155 539.266 82.1832 539.616 82.6787C539.952 83.1521 540.044 83.5143 540.055 83.5642L520.531 87.9002C521.541 92.4474 524.184 96.5377 528.652 99.0411C532.707 101.314 537.224 101.689 541.171 101.413L539.779 81.4617ZM521.465 81.0352C520.776 82.3302 520.15 82.831 518.311 82.9593L519.703 102.911C528.185 102.319 535.084 98.018 539.121 90.4292L521.465 81.0352ZM518.311 82.9593C516.812 83.0639 515.854 82.9652 515.311 82.8498C514.798 82.7406 514.777 82.6448 514.97 82.7886C515.061 82.856 515.155 82.9449 515.235 83.0444C515.314 83.1422 515.345 83.2075 515.345 83.2064C515.338 83.1922 515.174 82.8308 515.109 81.8995L495.158 83.2914C495.557 89.0065 497.706 94.8652 503.019 98.8248C508.026 102.556 514.14 103.299 519.703 102.911L518.311 82.9593ZM515.109 81.8995C515.068 81.3009 515.073 80.4636 515.187 79.347L495.289 77.3287C495.085 79.3351 495.022 81.3362 495.158 83.2914L515.109 81.8995ZM515.179 79.4153L516.204 69.9611L496.32 67.8063L495.296 77.2605L515.179 79.4153ZM516.206 69.9446C516.534 66.8659 517.49 65.0778 518.595 63.8967L503.989 50.2333C499.422 55.1149 497.025 61.2059 496.319 67.8228L516.206 69.9446ZM518.599 63.892C519.482 62.9466 520.852 62.0919 523.658 61.8961L522.266 41.9446C515.283 42.4318 508.873 45.0068 503.985 50.238L518.599 63.892ZM523.658 61.8961C525.437 61.772 526.359 61.9238 526.684 62.0099C526.931 62.0756 526.387 61.9768 525.767 61.276L540.747 48.025C535.67 42.2846 528.153 41.5339 522.266 41.9446L523.658 61.8961ZM543.212 55.6041L543.444 53.1821L523.535 51.275L523.303 53.697L543.212 55.6041ZM534.185 62.2043L546.316 61.358L544.924 41.4065L532.793 42.2528L534.185 62.2043ZM535.676 50.3214L532.961 75.772L552.848 77.8939L555.563 52.4432L535.676 50.3214ZM532.95 75.8794C532.867 76.7431 532.854 77.6159 532.916 78.4921L552.867 77.1003C552.884 77.3381 552.88 77.5687 552.859 77.7865L532.95 75.8794ZM509.112 74.1287C508.88 75.6753 508.926 77.1843 509.005 78.3156L528.957 76.9238C528.949 76.8138 528.945 76.7299 528.943 76.6698C528.941 76.6092 528.941 76.581 528.941 76.5815C528.941 76.5824 528.941 76.5928 528.94 76.6121C528.94 76.6312 528.938 76.6614 528.935 76.7017C528.93 76.7784 528.918 76.9146 528.891 77.0982L509.112 74.1287ZM509.005 78.3156C509.298 82.5152 511.534 85.5459 513.555 87.4205L527.158 72.7595C527.464 73.043 528.783 74.4268 528.957 76.9238L509.005 78.3156ZM513.794 87.636C517.616 90.9588 522.251 91.185 525.126 90.9845L523.734 71.033C523.466 71.0517 523.684 71.0017 524.215 71.1215C524.783 71.2496 525.84 71.6065 526.918 72.544L513.794 87.636ZM525.126 90.9845C530.001 90.6444 534.101 88.3085 537.006 84.7071L521.438 72.1509C521.532 72.0351 521.814 71.7331 522.325 71.4584C522.848 71.1767 523.36 71.0591 523.734 71.033L525.126 90.9845ZM539.165 79.4976L540.624 65.9231L520.738 63.786L519.279 77.3604L539.165 79.4976ZM539.532 60.2C536.143 53.7566 529.569 52.903 525.696 53.1732L527.088 73.1247C527.27 73.112 526.544 73.2062 525.405 72.7534C524.039 72.21 522.668 71.1012 521.83 69.5092L539.532 60.2ZM525.696 53.1732C522.086 53.425 518.04 54.5919 514.754 57.7014C511.439 60.8382 510.059 64.8506 509.676 68.515L529.567 70.5963C529.601 70.2753 529.558 71.2273 528.5 72.2285C527.471 73.2023 526.601 73.1586 527.088 73.1247L525.696 53.1732ZM509.673 68.5376L509.053 74.5954L528.95 76.6315L529.569 70.5737L509.673 68.5376ZM595.059 75.4401L605.056 75.1858L604.601 57.303L589.606 67.0577L595.059 75.4401ZM595.289 84.486L602.195 91.7186L605.398 88.6597L605.286 84.2317L595.289 84.486ZM578.067 85.928L571.074 93.0756L571.129 93.1291L571.184 93.1818L578.067 85.928ZM573.404 76.5498L583.019 73.8023L583.015 73.7907L583.012 73.7791L573.404 76.5498ZM573.086 75.4492L582.695 72.6785L580.109 63.7129L570.986 65.6721L573.086 75.4492ZM568.086 76.199L566.917 66.2676L558.988 67.2013L558.143 75.1395L568.086 76.199ZM566.778 88.4798L567.474 98.4556L575.834 97.8724L576.721 89.5393L566.778 88.4798ZM553.211 89.4263L543.266 88.3772L542.015 100.232L553.907 99.402L553.211 89.4263ZM559.679 28.1074L558.983 18.1317L550.614 18.7155L549.734 27.0584L559.679 28.1074ZM573.246 27.161L583.191 28.2076L584.438 16.3559L572.55 17.1852L573.246 27.161ZM570.449 53.7401L560.504 52.6935L556.882 87.1133L578.303 59.9296L570.449 53.7401ZM591.026 49.8186L584.239 57.1624L584.35 57.2652L584.464 57.3646L591.026 49.8186ZM586.078 70.854L580.727 62.4062L573.862 66.7546L576.714 74.3638L586.078 70.854ZM587.162 73.7455L596.551 70.3032L596.538 70.2694L596.526 70.2357L587.162 73.7455ZM569.372 63.5989L561.229 57.7945L559.674 59.9771L559.418 62.6454L569.372 63.5989ZM568.862 68.9274L558.908 67.9738L557.735 80.2192L569.961 78.8667L568.862 68.9274ZM579.205 59.7052L572.292 66.9305L572.636 67.2598L573.01 67.5548L579.205 59.7052ZM592.538 86.4422C595.255 86.2526 598.006 85.4526 600.512 83.8225L589.606 67.0577C589.914 66.8575 590.23 66.7131 590.524 66.619C590.814 66.5267 591.033 66.4986 591.147 66.4906L592.538 86.4422ZM585.062 75.6943L585.292 84.7403L605.286 84.2317L605.056 75.1858L585.062 75.6943ZM588.383 77.2534C587.907 77.7079 587.205 78.1532 585.632 78.2629L587.024 98.2144C592.687 97.8194 597.959 95.7629 602.195 91.7186L588.383 77.2534ZM585.632 78.2629C584.672 78.3299 584.268 78.2267 584.243 78.2199C584.242 78.2195 584.332 78.2451 584.479 78.3263C584.63 78.4094 584.795 78.5263 584.951 78.6741L571.184 93.1818C575.805 97.5666 581.741 98.583 587.024 98.2144L585.632 78.2629ZM585.061 78.7803C585.172 78.8889 584.924 78.6795 584.478 77.7831C584.045 76.911 583.538 75.6205 583.019 73.8023L563.788 79.2973C565.21 84.274 567.357 89.4388 571.074 93.0756L585.061 78.7803ZM583.012 73.7791L582.695 72.6785L563.478 78.2199L563.795 79.3205L583.012 73.7791ZM570.986 65.6721C570.357 65.8073 569.071 66.0138 566.917 66.2676L569.256 86.1303C571.555 85.8595 573.603 85.5662 575.186 85.2263L570.986 65.6721ZM558.143 75.1395L556.834 87.4203L576.721 89.5393L578.03 77.2585L558.143 75.1395ZM566.082 78.5041L552.515 79.4505L553.907 99.402L567.474 98.4556L566.082 78.5041ZM563.155 90.4753L569.624 29.1565L549.734 27.0584L543.266 88.3772L563.155 90.4753ZM560.375 38.0832L573.942 37.1368L572.55 17.1852L558.983 18.1317L560.375 38.0832ZM563.301 26.1144L560.504 52.6935L580.394 54.7867L583.191 28.2076L563.301 26.1144ZM578.303 59.9296C579.186 58.8098 580.525 57.8488 583.552 57.6377L582.16 37.6862C574.44 38.2248 567.508 41.3159 562.595 47.5506L578.303 59.9296ZM583.552 57.6377C584.567 57.5669 585.011 57.6678 585.06 57.6806C585.071 57.6836 584.974 57.659 584.809 57.5716C584.639 57.4818 584.438 57.3471 584.239 57.1624L597.813 42.4748C593.185 38.1974 587.262 37.3303 582.16 37.6862L583.552 57.6377ZM584.464 57.3646C584.396 57.305 584.318 57.2239 584.245 57.126C584.173 57.0286 584.128 56.945 584.105 56.894C584.059 56.7906 584.143 56.9193 584.179 57.4335L604.131 56.0417C603.778 50.9827 601.858 45.9862 597.588 42.2726L584.464 57.3646ZM584.179 57.4335C584.271 58.751 584.112 60.262 580.727 62.4062L591.429 79.3017C599.615 74.1162 604.841 66.2163 604.131 56.0417L584.179 57.4335ZM576.714 74.3638L577.798 77.2554L596.526 70.2357L595.442 67.3441L576.714 74.3638ZM577.773 77.1879C578.796 79.9796 580.723 82.7385 583.851 84.5569C586.849 86.2997 589.991 86.6198 592.538 86.4422L591.147 66.4906C591.299 66.48 592.464 66.4302 593.902 67.266C595.47 68.1775 596.253 69.4924 596.551 70.3032L577.773 77.1879ZM576.054 49.0186C569.538 49.4731 564.583 53.0893 561.229 57.7945L577.515 69.4034C577.935 68.8153 578.145 68.7169 578.046 68.7791C577.995 68.8108 577.899 68.8612 577.767 68.904C577.635 68.9469 577.521 68.9649 577.446 68.9701L576.054 49.0186ZM559.418 62.6454L558.908 67.9738L578.816 69.8809L579.327 64.5525L559.418 62.6454ZM569.961 78.8667C574.406 78.3751 579.103 77.3502 582.905 74.9666C587.362 72.1727 590.645 67.35 590.209 61.1028L570.258 62.4946C570.202 61.6885 570.36 60.5921 570.958 59.5282C571.515 58.5383 572.157 58.0997 572.282 58.021C572.379 57.9607 572.135 58.129 571.305 58.3604C570.499 58.5851 569.343 58.8132 567.763 58.988L569.961 78.8667ZM590.209 61.1028C589.981 57.8328 588.562 54.3509 585.401 51.8556L573.01 67.5548C572.173 66.8942 571.453 66.0238 570.953 65.0053C570.468 64.0168 570.302 63.1214 570.258 62.4946L590.209 61.1028ZM586.119 52.4798C582.876 49.3769 578.914 48.8191 576.054 49.0186L577.446 68.9701C576.714 69.0211 574.389 68.9372 572.292 66.9305L586.119 52.4798ZM644.118 72.0177L654.114 71.7634L653.66 53.8807L638.665 63.6353L644.118 72.0177ZM644.348 81.0636L651.179 88.3671L654.459 85.2992L654.345 80.8094L644.348 81.0636ZM625.764 79.0721L635.526 76.904L629.655 50.4682L616.936 74.375L625.764 79.0721ZM600.709 71.6778L590.767 70.6004L590.763 70.6345L590.76 70.6686L600.709 71.6778ZM601.733 62.2235L611.675 63.3009L611.676 63.2927L611.677 63.2845L601.733 62.2235ZM606.763 50.4049L614.066 57.2366L614.07 57.2318L606.763 50.4049ZM628.728 47.9904L621.238 54.6159L636.488 71.8559L638.683 48.944L628.728 47.9904ZM628.96 45.5684L628.264 35.5926L619.814 36.1822L619.006 44.6148L628.96 45.5684ZM641.091 44.7222L651.034 45.7831L652.301 33.9159L640.395 34.7464L641.091 44.7222ZM638.375 70.1728L628.432 69.1119L628.426 69.1656L628.421 69.2193L638.375 70.1728ZM614.473 68.9533L624.362 70.438L624.397 70.2054L624.421 69.9714L614.473 68.9533ZM615.827 73.4299L609.026 80.7604L609.144 80.8701L609.266 80.9759L615.827 73.4299ZM624.693 71.7689L632.477 78.0469L634.322 75.7594L634.636 72.8374L624.693 71.7689ZM626.152 58.1944L636.095 59.263L636.42 56.2351L635.003 53.5398L626.152 58.1944ZM615.092 62.8955L605.147 61.8548L605.146 61.8661L605.144 61.8775L615.092 62.8955ZM628.387 71.832C628.542 74.0614 629.351 77.5263 632.428 80.2021C635.505 82.8779 639.049 83.1976 641.278 83.042L639.886 63.0905C640.732 63.0315 643.214 63.0777 645.552 65.1101C647.889 67.1425 648.279 69.5941 648.338 70.4402L628.387 71.832ZM641.278 83.042C643.898 82.8592 646.85 82.17 649.571 80.4001L638.665 63.6353C639.544 63.0631 640.139 63.0729 639.886 63.0905L641.278 83.042ZM634.121 72.272L634.351 81.3179L654.345 80.8094L654.114 71.7634L634.121 72.272ZM637.517 73.7601C636.729 74.4968 636.076 74.744 635.25 74.8016L636.642 94.7531C642.201 94.3653 647.148 92.1366 651.179 88.3671L637.517 73.7601ZM635.25 74.8016C634.369 74.863 633.849 74.8166 633.612 74.7783C633.384 74.7415 633.541 74.7327 633.899 74.9334C634.295 75.1554 634.737 75.5231 635.088 76.0186C635.423 76.4919 635.515 76.8542 635.526 76.904L616.002 81.2401C617.012 85.7872 619.655 89.8775 624.123 92.381C628.178 94.6534 632.695 95.0284 636.642 94.7531L635.25 74.8016ZM616.936 74.375C616.247 75.6701 615.621 76.1709 613.782 76.2992L615.174 96.2507C623.656 95.659 630.555 91.3578 634.592 83.7691L616.936 74.375ZM613.782 76.2992C612.283 76.4038 611.325 76.3051 610.782 76.1897C610.269 76.0805 610.249 75.9847 610.441 76.1285C610.532 76.1958 610.626 76.2848 610.706 76.3843C610.785 76.4821 610.816 76.5474 610.816 76.5463C610.809 76.5321 610.646 76.1707 610.581 75.2394L590.629 76.6312C591.028 82.3463 593.177 88.2051 598.49 92.1646C603.497 95.8963 609.612 96.6387 615.174 96.2507L613.782 76.2992ZM610.581 75.2394C610.539 74.6408 610.544 73.8035 610.658 72.6869L590.76 70.6686C590.556 72.675 590.493 74.6761 590.629 76.6312L610.581 75.2394ZM610.651 72.7552L611.675 63.3009L591.792 61.1462L590.767 70.6004L610.651 72.7552ZM611.677 63.2845C612.005 60.2058 612.961 58.4177 614.066 57.2366L599.46 43.5731C594.894 48.4548 592.496 54.5458 591.79 61.1626L611.677 63.2845ZM614.07 57.2318C614.953 56.2865 616.323 55.4318 619.129 55.236L617.737 35.2845C610.754 35.7716 604.344 38.3466 599.456 43.5779L614.07 57.2318ZM619.129 55.236C620.908 55.1119 621.83 55.2637 622.155 55.3498C622.402 55.4155 621.858 55.3167 621.238 54.6159L636.218 41.3649C631.141 35.6245 623.624 34.8738 617.737 35.2845L619.129 55.236ZM638.683 48.944L638.915 46.522L619.006 44.6148L618.774 47.0369L638.683 48.944ZM629.656 55.5442L641.787 54.6979L640.395 34.7464L628.264 35.5926L629.656 55.5442ZM631.147 43.6612L628.432 69.1119L648.319 71.2338L651.034 45.7831L631.147 43.6612ZM628.421 69.2193C628.338 70.083 628.326 70.9558 628.387 71.832L648.338 70.4402C648.355 70.6779 648.351 70.9086 648.33 71.1264L628.421 69.2193ZM604.583 67.4686C604.351 69.0151 604.397 70.5242 604.476 71.6555L624.428 70.2637C624.42 70.1537 624.416 70.0698 624.414 70.0097C624.412 69.9491 624.412 69.9209 624.412 69.9214C624.412 69.9223 624.412 69.9327 624.411 69.9519C624.411 69.9711 624.409 70.0013 624.406 70.0416C624.401 70.1182 624.389 70.2545 624.362 70.438L604.583 67.4686ZM604.476 71.6555C604.769 75.8551 607.005 78.8857 609.026 80.7604L622.629 66.0994C622.935 66.3829 624.254 67.7667 624.428 70.2637L604.476 71.6555ZM609.266 80.9759C613.087 84.2986 617.722 84.5249 620.597 84.3244L619.205 64.3729C618.937 64.3916 619.155 64.3416 619.686 64.4613C620.254 64.5895 621.311 64.9464 622.389 65.8839L609.266 80.9759ZM620.597 84.3244C625.472 83.9843 629.572 81.6483 632.477 78.0469L616.91 65.4908C617.003 65.375 617.285 65.073 617.796 64.7983C618.319 64.5166 618.831 64.3989 619.205 64.3729L620.597 84.3244ZM634.636 72.8374L636.095 59.263L616.209 57.1259L614.751 70.7003L634.636 72.8374ZM635.003 53.5398C631.614 47.0965 625.04 46.2429 621.167 46.513L622.559 66.4645C622.741 66.4519 622.015 66.5461 620.876 66.0933C619.51 65.5499 618.139 64.4411 617.301 62.849L635.003 53.5398ZM621.167 46.513C617.557 46.7649 613.511 47.9318 610.225 51.0413C606.91 54.178 605.53 58.1905 605.147 61.8548L625.038 63.9361C625.072 63.6151 625.029 64.5671 623.971 65.5683C622.942 66.5422 622.073 66.4985 622.559 66.4645L621.167 46.513ZM605.144 61.8775L604.525 67.9353L624.421 69.9714L625.041 63.9135L605.144 61.8775Z" fill="white" mask="url(#path-1-outside-1_353_410)"/>
<path d="M21.3941 110.086C21.6502 113.757 24.4118 115.409 29.679 115.042C34.9994 114.671 37.5446 112.836 37.3144 109.537C37.192 107.781 36.1873 106.408 34.3004 105.417C32.4135 104.426 30.1406 103.649 27.4816 103.086C24.8759 102.519 22.2361 101.848 19.5623 101.072C16.938 100.239 14.649 98.8484 12.6953 96.8997C10.7379 94.8977 9.64971 92.3272 9.43073 89.1882C8.49913 75.834 16.6258 68.5574 33.8107 67.3586C40.0888 66.9206 44.9074 67.7874 48.2667 69.9589C51.6754 72.0735 53.5264 75.2323 53.8196 79.4354C53.9273 80.9783 53.8184 82.4829 53.493 83.9491C53.217 85.3584 52.8867 86.3705 52.5019 86.9854L51.9302 87.9877L37.8046 88.9731C38.8897 87.6677 39.3673 86.084 39.2374 84.2218C38.9961 80.7636 36.6143 79.1922 32.092 79.5077C26.3992 79.9048 23.6789 81.9123 23.9313 85.5302C24.0575 87.3391 25.0622 88.7125 26.9454 89.6504C28.8285 90.5883 31.0693 91.2874 33.6676 91.7477C36.3154 92.1511 38.9744 92.7141 41.6445 93.4367C44.3146 94.1593 46.6283 95.5216 48.5857 97.5235C50.5394 99.4723 51.6332 102.123 51.867 105.474C52.3384 112.231 50.6674 117.4 46.854 120.981C43.0369 124.508 36.9252 126.565 28.519 127.152C20.1127 127.738 14.2628 126.649 10.9691 123.885C8.52542 121.81 7.16627 118.804 6.89161 114.867C6.78769 113.377 6.8341 111.744 7.03084 109.966L7.18118 108.672L21.5463 107.67L21.4535 108.639C21.3842 109.178 21.3644 109.661 21.3941 110.086ZM96.8902 108.91C96.9867 110.293 97.7266 110.936 99.1099 110.84C100.546 110.74 101.725 110.39 102.646 109.791L102.876 118.837C100.467 121.09 97.6659 122.328 94.4737 122.551C88.4616 122.97 85.0281 120.884 84.1732 116.292C81.3038 121.144 77.1558 123.759 71.7289 124.137C66.3553 124.512 62.7851 123.532 61.0183 121.196C59.8465 119.727 59.192 118.008 59.0547 116.04C58.9174 114.071 58.9508 112.251 59.1549 110.58L61.8704 85.129L75.4374 84.1825L73.1674 105.673C73.0746 106.641 73.0616 107.605 73.1284 108.562C73.3066 111.116 74.8322 112.293 77.7052 112.092C80.0994 111.925 81.9572 110.967 83.2786 109.218L86.0516 83.4421L99.6186 82.4956L96.9032 107.946C96.8723 108.269 96.8679 108.59 96.8902 108.91ZM132.369 94.1648C132.209 91.877 131.012 90.8111 128.778 90.9669C126.596 91.1191 124.845 92.07 123.523 93.8195L120.83 119.589L107.263 120.536L111.369 81.6759L123.978 80.7963L123.429 85.5661C126.297 81.4632 130.125 79.2448 134.913 78.9107C139.702 78.5767 142.896 79.53 144.496 81.7708C145.504 83.1974 146.075 84.8684 146.209 86.7837C146.342 88.6991 146.334 90.4907 146.183 92.1586L144.885 104.599C144.854 104.922 144.848 105.216 144.867 105.482C144.967 106.919 145.815 107.582 147.411 107.47C148.635 107.385 149.707 107.043 150.628 106.444L150.858 115.49C148.502 117.739 145.728 118.975 142.536 119.198C135.3 119.703 131.47 116.922 131.047 110.857C130.973 109.793 131 108.642 131.127 107.403L132.302 96.6555C132.395 95.6867 132.417 94.8564 132.369 94.1648ZM192.649 102.229C192.745 103.613 193.485 104.256 194.868 104.16C196.305 104.059 197.483 103.71 198.404 103.111L198.634 112.157C196.225 114.41 193.424 115.648 190.232 115.871C184.38 116.279 180.986 114.377 180.05 110.165C177.687 114.607 173.925 117.008 168.764 117.368C160.039 117.977 155.415 114.53 154.891 107.029C154.802 105.752 154.837 104.333 154.995 102.771L156.02 93.3168C156.537 88.4691 158.213 84.5295 161.049 81.4981C163.935 78.4099 167.825 76.695 172.72 76.3535C177.668 76.0083 181.099 76.9184 183.015 79.0837L183.247 76.6617L195.377 75.8154L192.662 101.266C192.631 101.589 192.626 101.91 192.649 102.229ZM168.759 100.047C168.686 100.533 168.679 101.202 168.738 102.053C168.798 102.904 169.256 103.728 170.114 104.523C170.967 105.266 172.325 105.572 174.188 105.442C176.103 105.308 177.7 104.448 178.98 102.862L180.439 89.2877C179.76 87.9984 178.331 87.4299 176.149 87.5821C172.053 87.8679 169.796 90.0034 169.379 93.9888L168.759 100.047ZM244.792 100.677C246.016 100.591 247.088 100.249 248.008 99.6505L248.239 108.696C245.883 110.946 243.109 112.182 239.916 112.405C232.681 112.909 228.851 110.129 228.428 104.064C228.354 103 228.381 101.848 228.508 100.61L229.579 90.6713C229.672 89.7025 229.685 88.7393 229.618 87.7816C229.44 85.2278 227.994 84.0455 225.281 84.2348C222.62 84.4204 220.609 85.4696 219.245 87.3825L216.535 112.913L202.968 113.859L209.437 52.5406L223.004 51.5942L220.253 77.6889C222.96 74.3457 226.522 72.5201 230.938 72.212C236.311 71.8371 239.88 72.7911 241.643 75.074C242.871 76.5921 243.554 78.3355 243.692 80.3041C243.829 82.2726 243.796 84.0927 243.591 85.7643L242.266 97.8057C242.235 98.1286 242.229 98.4231 242.248 98.6891C242.348 100.126 243.196 100.788 244.792 100.677ZM290.068 95.4333C290.165 96.8166 290.905 97.46 292.288 97.3635C293.724 97.2633 294.903 96.9138 295.824 96.3149L296.054 105.361C293.645 107.614 290.844 108.852 287.652 109.075C281.799 109.483 278.405 107.581 277.47 103.369C275.107 107.811 271.345 110.212 266.184 110.572C257.458 111.181 252.834 107.734 252.311 100.233C252.222 98.9557 252.256 97.5365 252.415 95.975L253.439 86.5208C253.956 81.673 255.633 77.7335 258.469 74.7021C261.354 71.6138 265.244 69.8989 270.139 69.5575C275.087 69.2123 278.519 70.1224 280.434 72.2876L280.666 69.8656L292.797 69.0194L290.081 94.4701C290.05 94.793 290.046 95.1141 290.068 95.4333ZM266.178 93.2506C266.105 93.7368 266.099 94.4056 266.158 95.2568C266.217 96.1081 266.676 96.9315 267.533 97.7271C268.387 98.4695 269.745 98.7758 271.607 98.6458C273.522 98.5122 275.12 97.6523 276.399 96.0661L277.858 82.4917C277.18 81.2024 275.75 80.6338 273.569 80.786C269.472 81.0718 267.215 83.2074 266.798 87.1927L266.178 93.2506ZM338.101 74.0388C338.227 75.8477 338.03 77.6257 337.511 79.3728C337.044 81.1161 336.546 82.4073 336.017 83.2462L335.217 84.4247L323.166 85.2653C324.411 83.9489 324.97 82.3862 324.844 80.5772C324.777 79.6195 324.404 78.8704 323.725 78.3297C323.095 77.732 322.248 77.4703 321.184 77.5446C319.375 77.6708 317.868 78.6847 316.664 80.5864L313.955 106.117L300.388 107.063L304.493 68.2034L317.103 67.3238L316.518 72.7376C319.25 68.2165 322.771 65.8057 327.08 65.505C330.538 65.2638 333.176 65.9084 334.994 67.439C336.865 68.9658 337.9 71.1658 338.101 74.0388ZM379.071 89.2244C379.167 90.6077 379.907 91.2512 381.29 91.1547C382.727 91.0544 383.905 90.7049 384.826 90.1061L385.056 99.152C382.647 101.405 379.846 102.643 376.654 102.866C370.802 103.274 367.408 101.372 366.472 97.1604C364.109 101.602 360.347 104.003 355.186 104.363C346.461 104.972 341.836 101.525 341.313 94.0237C341.224 92.7468 341.259 91.3276 341.417 89.7661L342.442 80.3119C342.959 75.4642 344.635 71.5246 347.471 68.4932C350.357 65.4049 354.247 63.6901 359.142 63.3486C364.09 63.0034 367.521 63.9135 369.437 66.0788L369.669 63.6568L381.799 62.8105L379.084 88.2612C379.053 88.5841 379.048 88.9052 379.071 89.2244ZM355.181 87.0417C355.108 87.5279 355.101 88.1967 355.16 89.048C355.22 89.8992 355.678 90.7227 356.536 91.5183C357.389 92.2606 358.747 92.5669 360.609 92.437C362.525 92.3034 364.122 91.4434 365.402 89.8572L366.86 76.2828C366.182 74.9935 364.753 74.425 362.571 74.5771C358.475 74.8629 356.218 76.9985 355.801 80.9839L355.181 87.0417ZM437.851 97.4738L437.456 84.9109L424.128 85.8406L421.092 98.643L405.849 99.7063L422.35 40.8152L448.686 38.978L453.014 96.416L437.851 97.4738ZM431.545 54.2078L426.654 74.9183L437.109 74.189L436.573 53.8571L431.545 54.2078ZM474.851 77.6509C474.758 78.6197 474.745 79.5829 474.812 80.5406C474.99 83.0944 476.516 84.2711 479.389 84.0706C481.73 83.9073 483.614 82.9472 485.042 81.1902L487.735 55.4203L501.302 54.4739L497.046 94.6274C496.347 101.466 494.034 107 490.105 111.231C486.23 115.457 481.605 117.758 476.232 118.133C470.858 118.508 466.906 117.794 464.374 115.993C461.896 114.188 460.545 111.689 460.323 108.497C460.007 103.974 462.52 99.7626 467.862 95.8614C464.777 95.3281 462.756 93.9454 461.798 91.7133C461.23 90.4698 460.891 89.05 460.779 87.4539C460.668 85.8578 460.688 84.2258 460.839 82.5579L463.554 57.1072L477.121 56.1608L474.851 77.6509ZM477.271 106.593C480.729 106.351 482.772 103.055 483.398 96.7023L483.873 92.0179C476.719 95.992 473.264 99.7349 473.509 103.246C473.583 104.31 473.935 105.141 474.565 105.739C475.252 106.386 476.154 106.671 477.271 106.593ZM542.891 77.7962C542.988 79.1795 543.728 79.8229 545.111 79.7264C546.548 79.6262 547.726 79.2767 548.647 78.6778L548.877 87.7237C546.468 89.9769 543.667 91.2148 540.475 91.4375C534.622 91.8457 531.228 89.944 530.293 85.7322C527.93 90.1741 524.168 92.575 519.007 92.9351C510.281 93.5438 505.657 90.0972 505.134 82.5955C505.045 81.3186 505.079 79.8994 505.238 78.3379L506.262 68.8837C506.779 64.0359 508.456 60.0964 511.292 57.065C514.177 53.9767 518.067 52.2618 522.962 51.9204C527.91 51.5752 531.342 52.4853 533.257 54.6505L533.489 52.2285L545.62 51.3823L542.904 76.833C542.873 77.1559 542.869 77.477 542.891 77.7962ZM519.001 75.6134C518.928 76.0997 518.922 76.7685 518.981 77.6197C519.04 78.471 519.499 79.2944 520.356 80.09C521.21 80.8324 522.568 81.1386 524.43 81.0087C526.345 80.8751 527.943 80.0152 529.222 78.429L530.681 64.8546C530.003 63.5653 528.573 62.9967 526.392 63.1489C522.295 63.4347 520.038 65.5703 519.621 69.5556L519.001 75.6134ZM591.842 76.4664C593.066 76.381 594.138 76.0389 595.059 75.4401L595.289 84.486C592.933 86.7354 589.946 87.9863 586.328 88.2387C582.71 88.4911 579.957 87.7208 578.067 85.928C576.231 84.1314 574.677 81.0053 573.404 76.5498L573.086 75.4492C571.98 75.6868 570.313 75.9367 568.086 76.199L566.778 88.4798L553.211 89.4263L559.679 28.1074L573.246 27.161L570.449 53.7401C573.347 50.0629 577.482 48.0368 582.856 47.6619C586.474 47.4095 589.197 48.1284 591.026 49.8186C592.904 51.4519 593.947 53.7582 594.155 56.7376C594.556 62.4837 591.864 67.1891 586.078 70.854L587.162 73.7455C587.888 75.7265 589.448 76.6334 591.842 76.4664ZM576.75 58.9943C573.877 59.1948 571.418 60.7296 569.372 63.5989L568.862 68.9274C576.714 68.0588 580.504 65.6826 580.234 61.7987C580.17 60.8942 579.828 60.1964 579.205 59.7052C578.632 59.1571 577.814 58.9201 576.75 58.9943ZM638.362 71.1361C638.459 72.5194 639.199 73.1628 640.582 73.0663C642.019 72.9661 643.197 72.6165 644.118 72.0177L644.348 81.0636C641.939 83.3167 639.138 84.5546 635.946 84.7773C630.093 85.1856 626.699 83.2838 625.764 79.0721C623.401 83.514 619.639 85.9149 614.478 86.2749C605.753 86.8836 601.128 83.4371 600.605 75.9353C600.516 74.6584 600.55 73.2392 600.709 71.6778L601.733 62.2235C602.251 57.3758 603.927 53.4362 606.763 50.4049C609.648 47.3166 613.539 45.6017 618.433 45.2602C623.381 44.9151 626.813 45.8251 628.728 47.9904L628.96 45.5684L641.091 44.7222L638.375 70.1728C638.344 70.4958 638.34 70.8169 638.362 71.1361ZM614.473 68.9533C614.4 69.4396 614.393 70.1083 614.452 70.9596C614.512 71.8109 614.97 72.6343 615.827 73.4299C616.681 74.1723 618.039 74.4785 619.901 74.3486C621.817 74.215 623.414 73.3551 624.693 71.7689L626.152 58.1944C625.474 56.9052 624.044 56.3366 621.863 56.4888C617.766 56.7746 615.509 58.9101 615.092 62.8955L614.473 68.9533Z" fill="#F36DAF"/>
</svg>
