<svg width="980" height="1710" viewBox="0 0 980 1710" fill="none" xmlns="http://www.w3.org/2000/svg">
<line y1="29.5" x2="980" y2="29.5" stroke="#7EC2FF"/>
<line y1="59.5" x2="980" y2="59.5" stroke="#7EC2FF"/>
<line y1="89.5" x2="980" y2="89.5" stroke="#7EC2FF"/>
<line y1="119.5" x2="980" y2="119.5" stroke="#7EC2FF"/>
<line y1="149.5" x2="980" y2="149.5" stroke="#7EC2FF"/>
<line y1="179.5" x2="980" y2="179.5" stroke="#7EC2FF"/>
<line y1="209.5" x2="980" y2="209.5" stroke="#7EC2FF"/>
<line y1="239.5" x2="980" y2="239.5" stroke="#7EC2FF"/>
<line y1="269.5" x2="980" y2="269.5" stroke="#7EC2FF"/>
<line y1="299.5" x2="980" y2="299.5" stroke="#7EC2FF"/>
<line y1="329.5" x2="980" y2="329.5" stroke="#7EC2FF"/>
<line y1="359.5" x2="980" y2="359.5" stroke="#7EC2FF"/>
<line y1="389.5" x2="980" y2="389.5" stroke="#7EC2FF"/>
<line y1="419.5" x2="980" y2="419.5" stroke="#7EC2FF"/>
<line y1="449.5" x2="980" y2="449.5" stroke="#7EC2FF"/>
<line y1="479.5" x2="980" y2="479.5" stroke="#7EC2FF"/>
<line y1="509.5" x2="980" y2="509.5" stroke="#7EC2FF"/>
<line y1="539.5" x2="980" y2="539.5" stroke="#7EC2FF"/>
<line y1="569.5" x2="980" y2="569.5" stroke="#7EC2FF"/>
<line y1="599.5" x2="980" y2="599.5" stroke="#7EC2FF"/>
<line y1="629.5" x2="980" y2="629.5" stroke="#7EC2FF"/>
<line y1="659.5" x2="980" y2="659.5" stroke="#7EC2FF"/>
<line y1="689.5" x2="980" y2="689.5" stroke="#7EC2FF"/>
<line y1="719.5" x2="980" y2="719.5" stroke="#7EC2FF"/>
<line y1="749.5" x2="980" y2="749.5" stroke="#7EC2FF"/>
<line y1="779.5" x2="980" y2="779.5" stroke="#7EC2FF"/>
<line y1="809.5" x2="980" y2="809.5" stroke="#7EC2FF"/>
<line y1="839.5" x2="980" y2="839.5" stroke="#7EC2FF"/>
<line y1="869.5" x2="980" y2="869.5" stroke="#7EC2FF"/>
<line y1="899.5" x2="980" y2="899.5" stroke="#7EC2FF"/>
<line y1="929.5" x2="980" y2="929.5" stroke="#7EC2FF"/>
<line y1="959.5" x2="980" y2="959.5" stroke="#7EC2FF"/>
<line y1="989.5" x2="980" y2="989.5" stroke="#7EC2FF"/>
<line y1="1019.5" x2="980" y2="1019.5" stroke="#7EC2FF"/>
<line y1="1049.5" x2="980" y2="1049.5" stroke="#7EC2FF"/>
<line y1="1079.5" x2="980" y2="1079.5" stroke="#7EC2FF"/>
<line y1="1109.5" x2="980" y2="1109.5" stroke="#7EC2FF"/>
<line y1="1139.5" x2="980" y2="1139.5" stroke="#7EC2FF"/>
<line y1="1169.5" x2="980" y2="1169.5" stroke="#7EC2FF"/>
<line y1="1199.5" x2="980" y2="1199.5" stroke="#7EC2FF"/>
<line y1="1229.5" x2="980" y2="1229.5" stroke="#7EC2FF"/>
<line y1="1259.5" x2="980" y2="1259.5" stroke="#7EC2FF"/>
<line y1="1289.5" x2="980" y2="1289.5" stroke="#7EC2FF"/>
<line y1="1319.5" x2="980" y2="1319.5" stroke="#7EC2FF"/>
<line y1="1349.5" x2="980" y2="1349.5" stroke="#7EC2FF"/>
<line y1="1379.5" x2="980" y2="1379.5" stroke="#7EC2FF"/>
<line y1="1409.5" x2="980" y2="1409.5" stroke="#7EC2FF"/>
<line y1="1439.5" x2="980" y2="1439.5" stroke="#7EC2FF"/>
<line y1="1469.5" x2="980" y2="1469.5" stroke="#7EC2FF"/>
<line y1="1499.5" x2="980" y2="1499.5" stroke="#7EC2FF"/>
<line y1="1529.5" x2="980" y2="1529.5" stroke="#7EC2FF"/>
<line y1="1559.5" x2="980" y2="1559.5" stroke="#7EC2FF"/>
<line y1="1589.5" x2="980" y2="1589.5" stroke="#7EC2FF"/>
<line y1="1619.5" x2="980" y2="1619.5" stroke="#7EC2FF"/>
<line y1="1649.5" x2="980" y2="1649.5" stroke="#7EC2FF"/>
<line y1="1679.5" x2="980" y2="1679.5" stroke="#7EC2FF"/>
<line x1="30.5" y1="0.000292398" x2="29.5" y2="1710" stroke="#7EC2FF"/>
<line x1="61.5" y1="0.000292398" x2="60.5" y2="1710" stroke="#7EC2FF"/>
<line x1="92.5" y1="0.000292398" x2="91.5" y2="1710" stroke="#7EC2FF"/>
<line x1="123.5" y1="0.000292398" x2="122.5" y2="1710" stroke="#7EC2FF"/>
<line x1="155" y1="0.000584795" x2="154" y2="1710" stroke="#F36DAF" stroke-width="2"/>
<line x1="185.5" y1="0.000292398" x2="184.5" y2="1710" stroke="#7EC2FF"/>
<line x1="216.5" y1="0.000292398" x2="215.5" y2="1710" stroke="#7EC2FF"/>
<line x1="247.5" y1="0.000292398" x2="246.5" y2="1710" stroke="#7EC2FF"/>
<line x1="278.5" y1="0.000292398" x2="277.5" y2="1710" stroke="#7EC2FF"/>
<line x1="309.5" y1="0.000292398" x2="308.5" y2="1710" stroke="#7EC2FF"/>
<line x1="340.5" y1="0.000292398" x2="339.5" y2="1710" stroke="#7EC2FF"/>
<line x1="371.5" y1="0.000292398" x2="370.5" y2="1710" stroke="#7EC2FF"/>
<line x1="402.5" y1="0.000292398" x2="401.5" y2="1710" stroke="#7EC2FF"/>
<line x1="433.5" y1="0.000292398" x2="432.5" y2="1710" stroke="#7EC2FF"/>
<line x1="464.5" y1="0.000292398" x2="463.5" y2="1710" stroke="#7EC2FF"/>
<line x1="495.5" y1="0.000292398" x2="494.5" y2="1710" stroke="#7EC2FF"/>
<line x1="526.5" y1="0.000292398" x2="525.5" y2="1710" stroke="#7EC2FF"/>
<line x1="557.5" y1="0.000292398" x2="556.5" y2="1710" stroke="#7EC2FF"/>
<line x1="588.5" y1="0.000292398" x2="587.5" y2="1710" stroke="#7EC2FF"/>
<line x1="619.5" y1="0.000292398" x2="618.5" y2="1710" stroke="#7EC2FF"/>
<line x1="650.5" y1="0.000292398" x2="649.5" y2="1710" stroke="#7EC2FF"/>
<line x1="681.5" y1="0.000292398" x2="680.5" y2="1710" stroke="#7EC2FF"/>
<line x1="712.5" y1="0.000292398" x2="711.5" y2="1710" stroke="#7EC2FF"/>
<line x1="743.5" y1="0.000292398" x2="742.5" y2="1710" stroke="#7EC2FF"/>
<line x1="774.5" y1="0.000292398" x2="773.5" y2="1710" stroke="#7EC2FF"/>
<line x1="805.5" y1="0.000292398" x2="804.5" y2="1710" stroke="#7EC2FF"/>
<line x1="836.5" y1="0.000292398" x2="835.5" y2="1710" stroke="#7EC2FF"/>
<line x1="867.5" y1="0.000292398" x2="866.5" y2="1710" stroke="#7EC2FF"/>
<line x1="898.5" y1="0.000292398" x2="897.5" y2="1710" stroke="#7EC2FF"/>
<line x1="929.5" y1="0.000292398" x2="928.5" y2="1710" stroke="#7EC2FF"/>
<line x1="960.5" y1="0.000292398" x2="959.5" y2="1710" stroke="#7EC2FF"/>
</svg>
