<svg width="40" height="40" viewBox="0 0 40 40" fill="none" xmlns="http://www.w3.org/2000/svg">
<g clip-path="url(#clip0_542_565)">
<path d="M10.5102 14.5186C6.1735 15.7236 3.3335 17.7286 3.3335 20.0002C3.3335 23.6836 10.7952 26.6669 20.0002 26.6669C21.2885 26.6669 22.5435 26.6086 23.7468 26.4969" stroke="#171717" stroke-width="2.5" stroke-linecap="round" stroke-linejoin="round"/>
<path d="M29.4867 25.4813C33.825 24.278 36.6667 22.2713 36.6667 19.9997C36.6667 16.3163 29.205 13.333 20 13.333C18.7117 13.333 17.4567 13.3913 16.25 13.503" stroke="#171717" stroke-width="2.5" stroke-linecap="round" stroke-linejoin="round"/>
<path d="M10.5081 25.4783C9.38144 29.8367 9.69978 33.3 11.6664 34.4333C14.8548 36.275 21.1714 31.305 25.7731 23.3333C26.4181 22.2167 26.9948 21.1017 27.4998 20" stroke="#171717" stroke-width="2.5" stroke-linecap="round" stroke-linejoin="round"/>
<path d="M29.4902 14.527C30.6185 10.167 30.3019 6.70037 28.3335 5.56703C25.1452 3.72537 18.8285 8.69537 14.2269 16.667C13.5819 17.7837 13.0052 18.9004 12.4985 20.0004" stroke="#171717" stroke-width="2.5" stroke-linecap="round" stroke-linejoin="round"/>
<path d="M19.9998 9.03962C16.7914 5.88629 13.6331 4.42962 11.6664 5.56629C8.4781 7.40629 9.62311 15.3613 14.2264 23.333C14.8698 24.4496 15.5481 25.5063 16.2464 26.493" stroke="#171717" stroke-width="2.5" stroke-linecap="round" stroke-linejoin="round"/>
<path d="M20 30.9565C23.21 34.1115 26.3683 35.5699 28.3333 34.4332C31.5217 32.5932 30.3767 24.6382 25.7733 16.6665C25.1483 15.5832 24.4733 14.5282 23.7533 13.5049" stroke="#171717" stroke-width="2.5" stroke-linecap="round" stroke-linejoin="round"/>
<path d="M19.1665 21.4433C19.3562 21.5545 19.5659 21.6271 19.7837 21.6568C20.0014 21.6866 20.2229 21.673 20.4354 21.6168C20.6479 21.5607 20.8472 21.463 21.0218 21.3295C21.1964 21.196 21.3429 21.0292 21.4528 20.8389C21.5627 20.6485 21.6339 20.4383 21.6622 20.2204C21.6905 20.0024 21.6755 19.781 21.6179 19.5689C21.5603 19.3567 21.4613 19.1581 21.3266 18.9844C21.192 18.8107 21.0243 18.6653 20.8332 18.5567C20.4506 18.3391 19.9975 18.2818 19.5728 18.3971C19.148 18.5124 18.7861 18.791 18.5661 19.1722C18.346 19.5533 18.2856 20.006 18.3981 20.4315C18.5106 20.857 18.7869 21.2208 19.1665 21.4433Z" stroke="#171717" stroke-width="2.5" stroke-linecap="round" stroke-linejoin="round"/>
</g>
<defs>
<clipPath id="clip0_542_565">
<rect width="40" height="40" fill="white"/>
</clipPath>
</defs>
</svg>
