<svg width="40" height="40" viewBox="0 0 40 40" fill="none" xmlns="http://www.w3.org/2000/svg">
<path fill-rule="evenodd" clip-rule="evenodd" d="M20.5806 15.5806C21.7527 14.4085 23.3424 13.75 25 13.75C26.6576 13.75 28.2473 14.4085 29.4194 15.5806C30.5915 16.7527 31.25 18.3424 31.25 20C31.25 21.6576 30.5915 23.2473 29.4194 24.4194C28.2473 25.5915 26.6576 26.25 25 26.25C23.3424 26.25 21.7527 25.5915 20.5806 24.4194C19.4085 23.2473 18.75 21.6576 18.75 20C18.75 18.3424 19.4085 16.7527 20.5806 15.5806ZM25 16.25C24.0054 16.25 23.0516 16.6451 22.3483 17.3483C21.6451 18.0516 21.25 19.0054 21.25 20C21.25 20.9946 21.6451 21.9484 22.3483 22.6517C23.0516 23.3549 24.0054 23.75 25 23.75C25.9946 23.75 26.9484 23.3549 27.6517 22.6517C28.3549 21.9484 28.75 20.9946 28.75 20C28.75 19.0054 28.3549 18.0516 27.6517 17.3483C26.9484 16.6451 25.9946 16.25 25 16.25Z" fill="#171717"/>
<path fill-rule="evenodd" clip-rule="evenodd" d="M15 6.25C14.0054 6.25 13.0516 6.64509 12.3483 7.34835C11.6451 8.05161 11.25 9.00544 11.25 10C11.25 10.9946 11.6451 11.9484 12.3483 12.6517C13.0516 13.3549 14.0054 13.75 15 13.75H25C25.9946 13.75 26.9484 13.3549 27.6517 12.6517C28.3549 11.9484 28.75 10.9946 28.75 10C28.75 9.00544 28.3549 8.05161 27.6517 7.34835C26.9484 6.64509 25.9946 6.25 25 6.25H15ZM10.5806 5.58058C11.7527 4.40848 13.3424 3.75 15 3.75H25C26.6576 3.75 28.2473 4.40848 29.4194 5.58058C30.5915 6.75269 31.25 8.3424 31.25 10C31.25 11.6576 30.5915 13.2473 29.4194 14.4194C28.2473 15.5915 26.6576 16.25 25 16.25H15C13.3424 16.25 11.7527 15.5915 10.5806 14.4194C9.40848 13.2473 8.75 11.6576 8.75 10C8.75 8.3424 9.40848 6.75268 10.5806 5.58058Z" fill="#171717"/>
<path fill-rule="evenodd" clip-rule="evenodd" d="M20 3.75C20.6904 3.75 21.25 4.30964 21.25 5V30C21.25 31.2361 20.8834 32.4445 20.1967 33.4723C19.5099 34.5001 18.5338 35.3012 17.3918 35.7742C16.2497 36.2473 14.9931 36.3711 13.7807 36.1299C12.5683 35.8887 11.4547 35.2935 10.5806 34.4194C9.70651 33.5453 9.11125 32.4317 8.87009 31.2193C8.62894 30.0069 8.75271 28.7503 9.22576 27.6082C9.6553 26.5712 10.3553 25.671 11.25 25C11.0147 24.8236 10.7909 24.6298 10.5806 24.4194C9.40848 23.2473 8.75 21.6576 8.75 20C8.75 18.3424 9.40848 16.7527 10.5806 15.5806C11.7527 14.4085 13.3424 13.75 15 13.75C15.6904 13.75 16.25 14.3096 16.25 15C16.25 15.6904 15.6904 16.25 15 16.25C14.0054 16.25 13.0516 16.6451 12.3484 17.3483C11.6451 18.0516 11.25 19.0054 11.25 20C11.25 20.9946 11.6451 21.9484 12.3484 22.6517C13.0516 23.3549 14.0054 23.75 15 23.75H18.75V5C18.75 4.30964 19.3096 3.75 20 3.75ZM18.75 26.25H15C14.2583 26.25 13.5333 26.4699 12.9166 26.882C12.2999 27.294 11.8193 27.8797 11.5355 28.5649C11.2516 29.2502 11.1774 30.0042 11.3221 30.7316C11.4668 31.459 11.8239 32.1272 12.3484 32.6516C12.8728 33.1761 13.541 33.5333 14.2684 33.6779C14.9958 33.8226 15.7498 33.7484 16.4351 33.4645C17.1203 33.1807 17.706 32.7001 18.118 32.0834C18.5301 31.4667 18.75 30.7417 18.75 30V26.25Z" fill="#171717"/>
</svg>
