<svg width="12" height="12" viewBox="0 0 12 12" fill="none" xmlns="http://www.w3.org/2000/svg">
<path fill-rule="evenodd" clip-rule="evenodd" d="M4.24992 1.1875C4.05653 1.1875 3.87107 1.26432 3.73432 1.40107C3.59757 1.53781 3.52075 1.72328 3.52075 1.91667V7.75C3.52075 7.94339 3.59757 8.12885 3.73432 8.2656C3.87107 8.40234 4.05653 8.47917 4.24992 8.47917H10.0833C10.2766 8.47917 10.4621 8.40234 10.5989 8.2656C10.7356 8.12885 10.8124 7.94339 10.8124 7.75V1.91667C10.8124 1.72328 10.7356 1.53781 10.5989 1.40107C10.4621 1.26432 10.2766 1.1875 10.0833 1.1875H4.24992ZM3.1156 0.782349C3.41644 0.48151 3.82447 0.3125 4.24992 0.3125H10.0833C10.5087 0.3125 10.9167 0.48151 11.2176 0.782349C11.5184 1.08319 11.6874 1.49122 11.6874 1.91667V7.75C11.6874 8.17545 11.5184 8.58348 11.2176 8.88432C10.9167 9.18516 10.5087 9.35417 10.0833 9.35417H4.24992C3.82447 9.35417 3.41644 9.18516 3.1156 8.88432C2.81476 8.58348 2.64575 8.17545 2.64575 7.75V1.91667C2.64575 1.49122 2.81476 1.08319 3.1156 0.782349Z" fill="#62639C"/>
<path fill-rule="evenodd" clip-rule="evenodd" d="M1.91667 3.521C1.72328 3.521 1.53781 3.59782 1.40107 3.73456C1.26432 3.87131 1.1875 4.05678 1.1875 4.25016V10.0835C1.1875 10.2769 1.26432 10.4623 1.40107 10.5991C1.53781 10.7358 1.72328 10.8127 1.91667 10.8127H7.75C7.94339 10.8127 8.12885 10.7358 8.2656 10.5991C8.40234 10.4623 8.47917 10.2769 8.47917 10.0835V8.91683C8.47917 8.6752 8.67504 8.47933 8.91667 8.47933C9.15829 8.47933 9.35417 8.6752 9.35417 8.91683V10.0835C9.35417 10.5089 9.18516 10.917 8.88432 11.2178C8.58348 11.5187 8.17545 11.6877 7.75 11.6877H1.91667C1.49122 11.6877 1.08319 11.5187 0.782349 11.2178C0.48151 10.917 0.3125 10.5089 0.3125 10.0835V4.25016C0.3125 3.82471 0.48151 3.41669 0.782349 3.11585C1.08319 2.81501 1.49122 2.646 1.91667 2.646H3.08333C3.32496 2.646 3.52083 2.84187 3.52083 3.0835C3.52083 3.32512 3.32496 3.521 3.08333 3.521H1.91667Z" fill="#62639C"/>
</svg>
